<?xml version="1.0" standalone="no"?>
<!DOCTYPE svg PUBLIC "-//W3C//DTD SVG 20010904//EN"
 "http://www.w3.org/TR/2001/REC-SVG-20010904/DTD/svg10.dtd">
<svg version="1.0" xmlns="http://www.w3.org/2000/svg"
 width="512.000000pt" height="512.000000pt" viewBox="0 0 512.000000 512.000000"
 preserveAspectRatio="xMidYMid meet">
<metadata>
Created by potrace 1.14, written by Peter Selinger 2001-2017
</metadata>
<g transform="translate(0.000000,512.000000) scale(0.100000,-0.100000)"
fill="#000000" stroke="none">
<path d="M2280 5033 c0 -15 -2 -16 -10 -3 -9 14 -14 7 -11 -13 1 -4 -8 -3 -20
4 -17 9 -23 8 -30 -2 -7 -11 -11 -11 -17 -2 -6 9 -15 7 -37 -7 -20 -13 -33
-16 -41 -9 -9 7 -19 6 -34 -3 -17 -11 -22 -11 -30 2 -8 12 -10 12 -10 1 0 -7
-6 -11 -14 -8 -7 3 -23 -1 -35 -10 -12 -8 -27 -13 -34 -10 -6 2 -18 -3 -25
-12 -8 -9 -11 -11 -8 -4 4 7 -1 9 -14 6 -11 -3 -20 -10 -20 -15 0 -6 -8 -4
-17 3 -14 12 -16 12 -8 0 6 -11 3 -13 -13 -9 -13 4 -23 0 -26 -9 -3 -8 -11
-11 -16 -8 -6 4 -18 1 -27 -7 -14 -11 -16 -11 -9 1 6 9 1 8 -17 -3 -13 -9 -29
-15 -35 -14 -6 2 -18 -6 -27 -17 -9 -11 -14 -14 -10 -8 4 9 1 11 -9 7 -9 -3
-16 -9 -16 -13 0 -4 -14 -6 -30 -5 -25 2 -29 -1 -20 -11 9 -11 7 -12 -9 -8
-14 3 -21 1 -21 -8 0 -11 -2 -11 -10 1 -8 12 -10 10 -10 -10 0 -20 -2 -22 -10
-10 -9 13 -10 13 -10 0 0 -13 -1 -13 -10 0 -8 12 -10 12 -10 1 0 -8 -3 -12 -6
-8 -4 3 -15 -4 -26 -16 -11 -12 -17 -17 -14 -11 3 6 -1 11 -9 11 -8 0 -13 -3
-11 -6 2 -3 -2 -12 -10 -19 -9 -8 -14 -9 -14 -2 0 6 -12 0 -27 -14 -15 -14
-30 -23 -35 -20 -4 3 -8 0 -8 -6 0 -7 -6 -10 -12 -8 -7 3 -18 0 -25 -6 -35
-31 -48 -41 -50 -39 -6 5 -40 -12 -66 -34 -16 -13 -36 -23 -45 -23 -15 0 -15
-2 -2 -10 13 -8 12 -10 -5 -11 -11 -1 -23 -1 -27 0 -5 0 -8 -6 -8 -14 0 -8 -7
-15 -15 -15 -8 0 -15 -4 -15 -9 0 -5 -9 -11 -21 -14 -12 -3 -18 -10 -15 -15 3
-6 -6 -13 -19 -16 -14 -4 -23 -11 -20 -16 3 -6 -1 -10 -9 -10 -9 0 -16 -5 -16
-11 0 -5 -5 -7 -12 -3 -8 5 -9 2 -5 -10 4 -10 3 -15 -3 -11 -5 3 -18 -3 -30
-15 -11 -11 -25 -20 -31 -20 -5 0 -7 -4 -4 -10 3 -5 1 -10 -5 -10 -6 0 -8 -4
-5 -10 4 -6 -1 -7 -11 -3 -12 4 -15 3 -10 -5 4 -7 1 -12 -9 -12 -9 0 -13 -4
-10 -10 3 -5 -1 -10 -10 -10 -10 0 -13 -5 -9 -12 5 -8 2 -9 -10 -5 -10 4 -15
3 -11 -3 3 -6 1 -10 -4 -10 -6 0 -11 -5 -11 -12 0 -6 3 -8 6 -5 4 3 15 2 25
-4 15 -8 17 -6 12 7 -4 11 -2 15 4 11 5 -4 19 1 29 9 10 9 13 12 5 8 -9 -5
-12 -3 -7 4 4 7 14 12 22 12 8 0 14 4 14 10 0 5 12 16 28 24 15 8 27 18 27 23
0 4 3 7 7 6 5 -2 8 2 8 8 0 5 5 7 10 4 5 -3 10 2 10 11 0 10 3 15 6 11 3 -3
16 5 29 19 12 13 28 24 34 24 7 0 9 5 6 10 -3 6 3 10 15 10 12 0 19 4 16 9 -3
5 8 14 24 21 16 7 27 16 24 21 -3 5 2 9 11 9 24 0 66 31 58 43 -4 6 2 8 16 4
13 -3 21 -3 18 0 -10 9 17 31 32 25 10 -4 12 -1 6 8 -6 10 -4 12 9 7 10 -4 15
-3 11 3 -3 6 4 10 15 10 15 0 20 5 17 14 -4 11 0 13 15 11 24 -5 62 18 50 30
-4 5 -2 5 5 2 6 -4 17 -1 25 6 7 8 19 12 26 9 6 -2 12 1 12 8 0 6 5 8 10 5 6
-3 13 0 16 8 3 9 13 13 26 9 16 -4 20 -2 16 10 -5 11 0 14 19 12 13 -1 27 4
29 11 3 7 13 12 22 11 9 -2 23 4 30 13 8 9 11 11 8 5 -3 -6 1 -11 9 -11 8 0
13 5 12 10 -1 5 8 11 21 13 12 2 33 11 46 19 12 8 25 12 28 9 4 -3 17 1 30 8
12 8 35 13 50 12 19 -1 25 2 19 10 -6 8 5 12 37 13 26 1 48 7 50 13 3 8 9 7
20 -2 12 -10 14 -10 8 0 -5 8 -1 12 11 13 10 1 23 2 28 4 6 1 23 3 38 3 19 2
26 6 21 15 -5 9 -4 9 6 0 9 -9 19 -9 32 -2 11 6 26 8 34 5 8 -3 14 -1 14 4 0
5 10 7 22 5 12 -3 27 0 35 6 10 9 17 8 30 -2 9 -8 14 -9 10 -3 -4 7 0 14 8 18
8 3 15 0 15 -7 0 -8 3 -8 8 -2 4 6 25 10 47 10 22 -1 50 2 63 7 14 5 21 4 18
-1 -7 -11 13 -9 32 2 7 5 12 3 12 -5 0 -10 2 -10 9 1 6 9 10 10 16 2 5 -9 10
-9 21 0 11 9 14 9 14 0 0 -8 5 -7 15 3 15 15 50 11 40 -4 -6 -10 15 -8 33 3 7
5 12 3 12 -4 0 -8 4 -8 15 1 12 10 15 10 15 -1 0 -11 3 -11 11 1 8 12 12 12
16 2 4 -10 8 -10 21 0 9 7 13 8 9 2 -4 -8 12 -11 53 -10 33 1 66 -1 72 -5 7
-4 20 -3 29 2 12 6 22 5 31 -4 7 -8 21 -13 31 -11 9 1 17 -1 17 -4 0 -4 13 -7
29 -7 16 0 27 3 25 7 -3 4 2 5 10 2 9 -3 16 -9 16 -13 0 -7 23 -11 75 -14 17
-1 36 -9 43 -17 8 -8 11 -9 7 -3 -4 9 -1 11 9 7 9 -3 13 -11 9 -18 -4 -7 -1
-7 7 1 11 10 17 10 29 0 12 -10 13 -9 7 3 -6 12 -4 11 6 -1 7 -9 19 -14 27
-11 8 3 11 0 7 -6 -4 -7 1 -10 12 -7 10 2 32 -3 48 -10 16 -7 42 -16 57 -19
15 -4 25 -10 23 -15 -3 -5 8 -7 24 -5 23 3 30 0 30 -14 0 -15 2 -15 10 -2 8
12 10 12 10 1 0 -8 7 -11 20 -8 11 3 18 2 16 -2 -3 -3 9 -14 26 -24 25 -15 29
-15 18 -2 -11 13 -10 14 4 9 9 -3 16 -10 16 -15 0 -4 10 -13 21 -20 17 -9 20
-8 13 3 -6 10 -5 11 8 1 8 -7 19 -9 23 -5 5 4 5 1 1 -5 -6 -12 5 -18 27 -14 4
0 7 -4 7 -9 0 -6 7 -10 15 -10 7 0 18 -7 23 -16 5 -9 12 -15 15 -15 21 4 58
-13 53 -24 -3 -9 2 -11 15 -8 12 4 25 -1 33 -12 7 -10 18 -15 24 -11 10 6 16
-4 14 -25 -1 -3 10 -5 24 -3 13 1 22 -2 18 -7 -3 -5 2 -12 10 -15 9 -3 13 -11
9 -18 -4 -7 -2 -7 7 1 10 9 16 9 26 -2 8 -7 14 -18 14 -24 0 -6 3 -10 8 -9 10
2 62 -20 62 -27 0 -4 -6 -3 -12 1 -8 4 -10 3 -5 -2 5 -5 14 -9 20 -9 7 -1 11
-7 9 -14 -1 -7 2 -10 8 -6 5 3 10 1 10 -5 0 -6 5 -8 10 -5 6 3 10 -1 10 -11 0
-11 6 -15 19 -11 13 3 18 0 15 -8 -3 -7 11 -22 30 -35 20 -12 36 -26 36 -31 0
-5 7 -9 16 -9 8 0 12 -4 9 -10 -3 -5 1 -10 10 -10 8 0 18 -7 21 -15 4 -8 10
-12 15 -9 5 3 9 -2 9 -10 0 -15 12 -21 34 -17 5 1 6 -5 3 -13 -4 -9 -1 -15 6
-13 7 1 11 -4 9 -11 -4 -22 15 -4 21 19 4 15 2 19 -9 15 -7 -3 -13 -2 -13 2 1
4 1 14 0 22 -1 13 -2 13 -12 0 -9 -12 -10 -11 -6 7 3 12 2 22 -2 21 -20 -2
-31 4 -31 18 0 11 -5 14 -16 10 -11 -4 -15 -2 -11 7 3 8 -9 21 -29 32 -18 10
-31 22 -28 26 5 8 -10 13 -28 10 -5 0 -8 4 -8 10 0 16 -24 36 -38 31 -7 -2
-12 0 -11 5 3 18 -1 34 -9 29 -5 -3 -20 6 -35 20 -14 13 -31 24 -37 24 -5 0
-10 5 -10 12 0 6 -3 8 -6 5 -4 -4 -15 3 -25 14 -10 12 -23 18 -30 13 -8 -5 -9
-3 -4 6 6 10 4 12 -9 7 -10 -4 -15 -3 -11 3 3 5 -12 18 -35 30 -22 11 -40 25
-40 31 0 6 -7 9 -15 5 -8 -3 -15 -1 -15 5 0 6 -5 7 -10 4 -6 -3 -13 0 -16 9
-3 9 -12 12 -21 9 -12 -5 -14 -3 -8 7 6 10 3 12 -13 8 -23 -6 -47 13 -34 27 4
5 2 5 -4 2 -7 -4 -14 0 -18 8 -3 8 -15 15 -26 15 -14 0 -19 4 -14 13 6 9 5 9
-7 0 -14 -11 -42 -4 -40 11 2 15 0 16 -19 6 -16 -8 -20 -8 -18 2 2 7 -3 12 -9
11 -7 -2 -13 2 -13 8 0 6 -9 9 -19 6 -13 -3 -21 1 -23 11 -2 11 -14 16 -33 17
-17 0 -29 5 -28 12 2 7 -8 10 -26 8 -20 -3 -31 1 -35 12 -3 8 -13 13 -20 10
-8 -3 -17 -1 -20 6 -3 8 -5 8 -5 -1 -1 -10 -5 -10 -17 2 -8 9 -20 14 -25 11
-5 -4 -9 -2 -9 3 0 6 -6 10 -12 9 -42 -1 -68 4 -63 13 4 6 -12 10 -39 10 -28
0 -46 4 -46 12 0 6 -3 8 -7 5 -3 -4 -13 -1 -21 6 -13 9 -14 9 -8 0 5 -9 2 -11
-8 -7 -9 3 -13 11 -9 17 4 6 1 7 -8 1 -21 -13 -39 -14 -39 -1 0 5 -3 8 -6 4
-4 -3 -21 1 -38 10 -30 15 -30 15 -16 -2 14 -17 14 -17 -6 -7 -12 6 -24 8 -28
5 -3 -3 -6 -2 -6 4 0 6 -22 9 -50 9 -33 -1 -51 3 -55 12 -3 10 -10 10 -24 2
-24 -12 -34 -13 -27 -1 7 10 -13 9 -30 -2 -6 -3 -14 -3 -18 1 -12 12 -356 10
-356 -2 0 -6 -5 -4 -10 4 -6 10 -10 11 -10 3 0 -7 -5 -13 -11 -13 -5 0 -7 4
-4 10 3 6 -1 7 -9 4 -9 -3 -13 -10 -10 -15 8 -14 -3 -10 -20 7 -15 14 -16 14
-16 -3z"/>
<path d="M2123 5015 c0 -7 6 -11 14 -8 7 3 13 6 13 8 0 2 -6 5 -13 8 -8 3 -14
-1 -14 -8z"/>
<path d="M787 4283 c6 -16 23 -17 23 -2 0 5 6 7 13 3 6 -4 9 -3 4 1 -13 15
-46 13 -40 -2z"/>
<path d="M4350 4259 c0 -5 5 -7 10 -4 6 3 10 8 10 11 0 2 -4 4 -10 4 -5 0 -10
-5 -10 -11z"/>
<path d="M3403 4158 c7 -21 -4 -23 -21 -6 -7 7 -12 8 -12 2 0 -9 -93 -9 -131
0 -11 2 -16 -3 -14 -18 0 -11 -3 -29 -7 -38 -6 -12 -5 -18 2 -18 6 0 8 -5 4
-12 -10 -16 -12 -58 -3 -58 9 0 6 -21 -4 -37 -5 -8 -3 -13 3 -13 6 0 8 -5 4
-12 -10 -16 -12 -58 -3 -58 9 0 6 -21 -4 -37 -5 -8 -3 -13 3 -13 6 0 8 -5 4
-12 -10 -16 -12 -58 -3 -58 9 0 6 -21 -4 -37 -5 -8 -3 -13 3 -13 6 0 8 -5 4
-12 -10 -16 -12 -58 -3 -58 9 0 6 -21 -4 -37 -5 -8 -3 -13 3 -13 6 0 8 -5 4
-12 -10 -16 -12 -58 -3 -58 9 0 6 -21 -4 -37 -5 -8 -3 -13 3 -13 6 0 8 -5 4
-12 -10 -16 -12 -58 -3 -58 9 0 6 -21 -4 -37 -5 -8 -3 -13 3 -13 6 0 8 -5 4
-12 -10 -16 -12 -58 -3 -58 9 0 6 -21 -4 -37 -5 -8 -3 -13 3 -13 6 0 8 -5 3
-12 -11 -19 -12 -38 -2 -38 6 0 5 -8 -1 -20 -8 -14 -8 -20 0 -20 8 0 8 -6 0
-20 -8 -14 -8 -20 0 -20 8 0 8 -6 0 -20 -8 -14 -8 -20 0 -20 8 0 8 -6 0 -20
-8 -14 -8 -20 0 -20 8 0 8 -6 0 -20 -8 -14 -8 -20 0 -20 8 0 8 -6 0 -20 -8
-14 -8 -20 0 -20 8 0 8 -6 0 -20 -8 -14 -8 -20 0 -20 8 0 8 -6 0 -20 -8 -14
-8 -20 0 -20 8 0 8 -6 0 -20 -8 -14 -8 -20 0 -20 8 0 8 -6 0 -20 -8 -14 -8
-20 0 -20 8 0 8 -6 0 -20 -8 -14 -8 -20 0 -20 8 0 8 -6 0 -20 -8 -14 -8 -20 0
-20 8 0 8 -6 0 -20 -8 -14 -8 -20 0 -20 8 0 8 -6 0 -20 -8 -14 -8 -20 0 -20 8
0 8 -6 0 -20 -8 -14 -8 -20 0 -20 8 0 8 -6 0 -20 -8 -14 -8 -20 0 -20 8 0 8
-6 0 -20 -8 -14 -8 -20 0 -20 8 0 8 -6 0 -20 -8 -14 -8 -20 0 -20 8 0 8 -6 0
-20 -8 -14 -8 -20 0 -20 8 0 8 -6 0 -20 -8 -14 -8 -20 0 -20 8 0 8 -6 0 -20
-8 -14 -8 -20 0 -20 8 0 8 -6 0 -20 -8 -14 -8 -20 0 -20 8 0 8 -6 0 -20 -8
-14 -8 -20 0 -20 8 0 8 -6 0 -20 -8 -14 -8 -20 0 -20 8 0 8 -6 0 -20 -8 -14
-8 -20 0 -20 8 0 8 -6 0 -20 -8 -14 -8 -20 0 -20 8 0 8 -6 0 -20 -8 -14 -8
-20 0 -20 8 0 8 -6 0 -20 -8 -14 -8 -20 0 -20 8 0 8 -6 0 -20 -8 -14 -8 -20 0
-20 8 0 8 -6 0 -20 -8 -14 -8 -20 0 -20 8 0 8 -6 0 -20 -6 -11 -7 -20 -3 -20
10 0 10 -41 -1 -58 -4 -7 -2 -12 4 -12 6 0 8 -5 4 -12 -10 -16 -12 -58 -3 -58
9 0 6 -21 -4 -37 -5 -8 -3 -13 3 -13 6 0 8 -5 4 -12 -10 -16 -12 -58 -3 -58 9
0 6 -21 -4 -37 -5 -8 -3 -13 3 -13 6 0 8 -5 4 -12 -10 -16 -12 -58 -3 -58 9 0
6 -21 -4 -37 -5 -8 -3 -13 3 -13 6 0 8 -5 4 -12 -10 -16 -12 -58 -3 -58 9 0 6
-21 -4 -37 -5 -8 -3 -13 3 -13 6 0 8 -5 4 -12 -10 -16 -12 -58 -3 -58 4 0 5
-10 1 -22 -5 -20 -3 -21 10 -11 8 7 18 10 22 6 11 -11 46 -10 46 1 0 6 4 5 9
-2 11 -17 21 -17 32 0 5 7 9 8 9 2 0 -14 30 -14 30 0 0 6 4 5 9 -2 4 -8 12
-14 16 -14 4 0 12 6 16 14 5 7 9 8 9 2 0 -14 30 -14 30 0 0 6 4 5 9 -2 11 -17
21 -17 32 0 6 8 9 9 9 1 0 -6 8 -10 18 -8 9 2 22 4 28 4 5 1 11 19 11 41 0 26
-3 38 -11 34 -6 -3 -3 1 7 9 19 16 24 32 5 21 -7 -5 -8 -3 -3 6 4 7 2 16 -6
21 -10 6 -11 9 -1 9 6 0 12 7 12 16 0 8 -4 12 -10 9 -6 -4 -7 2 -1 16 10 28
31 37 31 14 0 -9 4 -14 8 -11 5 3 14 -4 22 -14 8 -10 18 -16 23 -13 6 3 7 1 4
-4 -4 -6 3 -19 15 -29 12 -11 19 -14 15 -8 -3 6 0 11 7 11 8 0 12 -5 10 -12
-3 -6 11 -19 31 -28 19 -9 35 -21 35 -27 0 -5 12 -10 28 -11 15 0 21 -3 13 -6
-8 -3 1 -11 24 -19 21 -7 43 -10 49 -7 6 4 4 -2 -4 -12 -14 -17 -14 -18 7 -7
14 8 24 9 28 2 3 -5 15 -10 26 -10 10 0 19 -6 19 -12 0 -9 4 -8 10 2 5 8 10
10 10 4 0 -7 15 -12 35 -12 20 0 43 -6 52 -14 12 -9 15 -9 9 0 -8 13 6 17 18
5 10 -10 37 -13 31 -3 -3 4 2 10 10 14 8 3 19 -3 24 -12 8 -14 10 -14 11 -2 0
13 1 13 10 0 9 -13 12 -12 25 4 11 15 15 16 15 5 0 -8 9 -15 19 -15 13 0 17 4
11 11 -6 8 2 10 25 7 24 -3 35 0 35 9 0 8 6 5 16 -7 8 -10 12 -13 8 -5 -5 11
-2 13 14 9 12 -4 25 -1 29 4 3 7 1 8 -5 4 -7 -4 -12 -2 -12 3 0 15 13 14 29
-1 11 -11 12 -10 6 0 -4 8 -2 13 6 11 26 -3 40 1 35 10 -4 5 3 7 14 4 11 -3
20 0 20 6 0 6 7 8 17 4 12 -5 15 -2 10 10 -6 15 -4 16 14 6 17 -9 20 -8 14 2
-6 9 -2 11 13 7 15 -4 19 -2 15 8 -4 10 0 12 13 7 12 -4 15 -3 10 6 -6 8 -2
11 10 9 11 -2 18 2 16 10 -1 6 7 12 19 12 11 0 17 5 14 10 -6 9 8 14 28 11 4
0 7 6 7 15 0 8 5 12 10 9 6 -3 10 2 10 12 0 15 2 16 10 3 9 -13 10 -13 10 0 0
8 12 26 25 39 14 13 25 27 25 33 0 5 5 6 10 3 6 -3 10 4 10 15 0 17 4 21 17
16 10 -4 14 -4 10 0 -4 4 1 16 10 27 10 11 12 17 6 13 -28 -16 -11 6 20 25 17
12 24 18 14 15 -20 -6 -16 4 12 38 13 16 13 18 1 12 -8 -4 -6 0 4 8 11 9 16
16 12 16 -5 0 -3 7 4 15 6 8 9 19 5 25 -3 5 -2 10 4 10 5 0 10 8 10 18 2 43 6
60 12 56 12 -7 17 20 7 40 -7 13 -7 16 1 12 7 -5 10 3 7 23 -2 23 1 31 13 31
13 0 13 2 2 9 -9 6 -10 11 -2 15 8 5 8 13 0 28 -8 15 -8 19 0 14 6 -4 11 -3
11 3 0 5 -6 12 -12 14 -9 4 -9 8 -3 14 15 12 19 47 5 38 -9 -6 -9 -2 0 15 10
18 9 24 -1 31 -11 7 -11 9 -1 9 10 0 10 4 -2 16 -19 19 -20 25 -3 18 8 -3 13
3 13 16 0 11 -5 19 -11 17 -6 -3 -9 10 -9 32 1 20 -4 42 -10 50 -9 12 -8 13 4
6 12 -7 13 -6 4 6 -6 8 -10 22 -9 31 2 12 -2 15 -13 11 -14 -5 -15 -3 -5 7 9
10 9 19 -2 40 -8 15 -11 31 -7 35 4 5 2 5 -4 2 -7 -4 -14 0 -18 8 -3 8 0 15 7
15 7 1 5 6 -5 14 -10 7 -19 23 -21 35 -2 12 -10 27 -17 34 -11 9 -11 7 0 -8
14 -18 14 -19 -2 -7 -9 7 -15 22 -13 33 2 11 0 17 -6 14 -5 -4 -9 1 -9 9 0 9
-7 16 -15 16 -8 0 -15 8 -15 18 0 10 -9 24 -19 32 -11 7 -17 18 -14 23 3 6 2
7 -4 4 -12 -7 -44 28 -35 39 4 4 1 4 -6 0 -15 -9 -44 23 -34 39 3 5 -3 3 -13
-5 -11 -9 -16 -10 -11 -2 4 7 2 12 -5 12 -6 0 -20 10 -30 22 -11 12 -19 16
-19 8 0 -7 -9 -3 -20 10 -11 13 -20 19 -20 15 0 -5 -6 -1 -13 10 -10 13 -16
15 -21 6 -6 -9 -13 -6 -26 9 -13 15 -19 17 -23 8 -4 -10 -6 -10 -6 0 -1 7 -14
12 -31 12 -16 0 -30 4 -30 9 0 14 -38 20 -44 7 -3 -8 -5 -7 -5 1 -1 7 -8 10
-16 7 -9 -4 -15 0 -15 7 0 11 -3 11 -10 -1 -8 -12 -10 -12 -10 -1 0 10 -3 11
-14 2 -11 -9 -16 -9 -22 0 -5 8 -3 9 6 4 8 -5 11 -4 7 3 -7 11 -32 11 -43 -1
-4 -3 -15 -2 -25 4 -13 6 -19 6 -19 0 0 -6 -7 -8 -15 -5 -8 4 -23 3 -32 -1
-27 -12 -53 -13 -59 -3 -3 5 -12 4 -20 -3 -11 -9 -18 -8 -31 2 -14 12 -16 12
-8 0 6 -11 4 -13 -9 -8 -14 6 -17 3 -12 -9 5 -13 4 -14 -7 -6 -10 9 -17 8 -27
-1 -10 -9 -11 -9 -6 0 5 9 2 11 -8 7 -9 -3 -13 -11 -9 -18 4 -7 1 -7 -7 1 -11
10 -16 9 -26 -5 -11 -14 -13 -14 -14 -2 0 9 -3 11 -8 5 -4 -5 -17 -15 -29 -22
-17 -10 -23 -10 -26 0 -3 7 -6 4 -6 -5 -1 -11 -9 -18 -21 -18 -11 0 -20 -4
-20 -9 0 -6 -9 -8 -20 -6 -11 2 -19 -1 -17 -8 1 -7 -6 -11 -17 -9 -11 2 -15
-1 -11 -7 3 -6 -1 -11 -10 -11 -8 0 -23 -9 -32 -19 -9 -11 -21 -17 -26 -14 -6
4 -8 -1 -4 -11 5 -14 3 -17 -8 -12 -10 3 -15 0 -15 -11 0 -9 -3 -14 -6 -10 -3
3 -16 -5 -29 -19 -14 -15 -26 -21 -30 -14 -3 5 -1 10 4 10 12 0 10 28 -3 49
-7 11 -5 13 10 7 15 -5 16 -4 7 5 -6 6 -9 18 -6 27 5 11 3 13 -8 7 -8 -5 -5 2
5 14 15 16 16 20 5 16 -18 -7 -22 22 -6 43 6 8 5 12 -4 12 -11 0 -11 2 1 10
13 8 13 10 1 10 -11 0 -10 4 5 16 10 8 14 13 7 10 -6 -4 -14 -2 -18 4 -3 5 -1
10 4 10 12 0 10 28 -3 49 -7 11 -5 13 10 7 15 -5 16 -4 7 5 -6 6 -9 18 -6 27
5 11 3 13 -8 7 -8 -5 -5 2 5 14 15 16 16 20 5 16 -18 -7 -22 22 -6 43 6 8 5
12 -4 12 -11 0 -11 2 1 10 13 8 13 10 1 10 -11 0 -9 4 5 15 10 8 15 15 9 14
-23 -3 -29 2 -15 11 13 9 13 11 0 20 -12 8 -12 10 -1 10 11 0 11 3 0 17 -12
15 -12 16 5 10 16 -6 17 -5 6 8 -7 8 -9 15 -5 15 5 0 0 9 -11 21 -10 11 -13
19 -7 17 9 -2 16 5 12 15 -6 16 -3 100 4 104 4 3 0 14 -10 25 -9 11 -13 18 -8
16 9 -3 17 6 14 15 -6 17 -3 105 4 115 6 8 5 12 -4 12 -11 0 -11 2 1 10 13 8
13 10 1 10 -11 0 -10 4 5 16 10 8 14 13 7 10 -6 -4 -14 -2 -18 4 -3 5 -1 10 4
10 12 0 10 28 -3 49 -7 11 -5 13 10 7 15 -5 16 -4 7 5 -6 6 -9 18 -6 27 5 11
3 13 -8 7 -8 -5 -5 2 5 14 15 16 16 20 5 16 -18 -7 -22 22 -6 43 6 8 5 12 -4
12 -11 0 -11 2 1 10 13 8 13 10 1 10 -11 0 -10 4 5 16 10 8 14 13 7 10 -6 -4
-14 -2 -18 4 -3 5 -1 10 4 10 12 0 10 28 -3 49 -7 11 -5 13 10 7 15 -5 16 -4
7 5 -6 6 -9 18 -6 27 5 11 3 13 -8 7 -8 -5 -5 2 5 14 15 16 16 20 5 16 -18 -7
-22 22 -6 43 6 8 5 12 -4 12 -11 0 -11 2 1 10 13 8 13 10 1 10 -11 0 -10 4 5
16 10 8 14 13 7 10 -6 -4 -14 -2 -18 4 -3 5 -1 10 5 10 6 0 8 5 3 13 -11 18
-13 38 -2 31 5 -3 6 -10 3 -16 -4 -7 -2 -8 5 -4 16 10 -7 39 -25 32 -7 -3 -15
0 -18 7 -3 8 -5 8 -5 -2 -1 -11 -4 -11 -16 -1 -12 10 -15 10 -15 0 0 -10 -3
-10 -15 0 -12 10 -15 10 -15 0 0 -10 -3 -10 -15 0 -12 10 -15 10 -15 -1 -1 -9
-6 -7 -17 6 -13 16 -15 17 -10 3z m637 -1545 c0 7 7 3 15 -7 13 -17 15 -18 15
-3 0 9 5 17 11 17 5 0 7 -5 3 -12 -5 -7 -3 -8 7 -2 20 12 40 14 33 3 -3 -5
-10 -6 -16 -3 -7 4 -8 2 -4 -4 5 -9 13 -9 28 -1 16 9 23 8 29 -2 7 -12 9 -11
9 1 0 11 3 11 12 2 8 -8 15 -9 25 -1 9 8 14 7 19 -5 3 -9 10 -13 15 -10 5 3 9
0 9 -5 0 -6 5 -11 11 -11 5 0 7 6 3 13 -4 6 5 1 19 -12 15 -13 33 -21 41 -18
9 4 18 1 22 -5 5 -7 2 -8 -6 -3 -9 6 -11 4 -6 -4 5 -7 15 -10 24 -6 9 3 13 3
10 -1 -11 -10 15 -32 32 -26 8 3 12 2 8 -3 -9 -9 16 -35 33 -35 7 0 10 -3 6
-6 -3 -3 5 -16 19 -29 13 -12 24 -27 24 -34 0 -6 5 -11 11 -11 5 0 8 -4 5 -9
-3 -5 1 -12 9 -15 8 -3 14 -11 13 -18 -2 -7 3 -12 11 -10 12 3 12 0 1 -12 -8
-11 -9 -16 -1 -16 6 0 11 -7 11 -15 0 -8 5 -15 11 -15 6 0 9 -9 6 -20 -3 -11
-1 -20 4 -20 5 0 9 -5 9 -11 0 -5 -6 -7 -12 -3 -10 6 -10 4 0 -8 7 -8 10 -24
6 -34 -4 -14 -3 -15 4 -6 7 11 10 9 15 -7 4 -15 0 -21 -11 -21 -13 0 -12 -3 4
-15 14 -10 15 -14 5 -15 -11 0 -12 -3 -4 -11 7 -7 8 -20 3 -34 -5 -14 -4 -27
3 -34 7 -7 7 -11 1 -11 -6 0 -9 -14 -6 -31 3 -21 1 -30 -6 -25 -6 3 -14 1 -18
-5 -4 -8 -3 -9 4 -5 7 4 12 1 12 -8 0 -9 -6 -16 -12 -16 -9 0 -8 -4 2 -10 11
-7 11 -10 2 -10 -7 0 -10 -5 -7 -10 4 -6 1 -17 -5 -25 -6 -8 -8 -20 -4 -26 4
-8 3 -9 -4 -5 -8 5 -12 -1 -12 -14 0 -13 -4 -19 -11 -14 -7 4 -10 1 -7 -7 3
-8 -4 -20 -16 -27 -20 -13 -20 -13 -1 -8 16 5 14 1 -8 -19 -16 -14 -25 -30
-21 -37 4 -7 3 -8 -5 -4 -6 4 -14 0 -17 -8 -3 -9 -12 -16 -20 -16 -8 0 -13 -5
-11 -11 1 -6 -13 -19 -30 -28 -18 -10 -31 -20 -28 -22 2 -3 -10 -12 -26 -21
-18 -10 -27 -12 -23 -5 4 6 -2 4 -13 -6 -11 -9 -23 -14 -26 -10 -4 3 -7 1 -7
-6 0 -7 -4 -9 -10 -6 -5 3 -10 2 -10 -3 0 -5 -10 -9 -22 -8 -13 1 -29 -4 -37
-12 -10 -10 -16 -10 -27 -1 -11 9 -14 8 -14 -2 0 -10 -3 -10 -12 -1 -7 7 -17
12 -22 12 -6 0 -4 -5 4 -10 12 -8 11 -10 -7 -10 -13 0 -23 6 -24 13 0 10 -2
10 -6 0 -2 -7 -13 -13 -24 -13 -10 0 -19 6 -19 13 0 8 -4 7 -11 -3 -8 -12 -12
-12 -16 -2 -4 10 -8 10 -21 0 -12 -10 -14 -10 -8 0 8 13 -1 15 -46 12 -16 -1
-28 4 -28 10 0 9 -3 10 -13 1 -11 -8 -18 -6 -32 9 -10 11 -21 17 -26 15 -4 -3
-14 2 -23 10 -8 9 -19 16 -23 16 -4 1 -7 5 -5 11 1 5 -2 7 -7 4 -5 -4 -16 1
-24 9 -9 8 -18 15 -20 15 -2 0 -22 17 -43 37 -22 20 -30 30 -19 22 18 -13 19
-13 6 4 -7 9 -20 17 -27 17 -8 0 -13 3 -13 8 4 21 -2 32 -13 26 -8 -5 -9 -2
-5 9 3 10 2 17 -4 17 -6 0 -7 5 -4 10 3 6 2 10 -4 10 -6 0 -16 10 -22 23 -12
21 -11 21 6 7 17 -14 17 -14 5 7 -8 12 -17 20 -20 18 -6 -4 -12 38 -11 73 4
83 -2 142 -13 136 -6 -3 -2 2 8 10 19 15 19 16 0 38 -10 12 -13 18 -6 14 6 -4
12 -2 12 3 0 6 -5 11 -11 11 -5 0 -7 5 -4 10 4 6 10 8 14 6 9 -6 8 46 -2 62
-5 6 -4 12 2 12 6 0 8 6 5 14 -3 7 1 20 8 27 7 8 14 21 16 29 2 8 15 25 30 37
15 12 21 22 15 23 -7 0 -13 -4 -13 -10 0 -5 -6 -10 -12 -10 -7 0 1 12 17 27
17 14 30 31 30 37 1 6 6 10 13 9 11 -3 16 10 13 29 0 5 2 7 7 7 20 -3 32 2 27
12 -4 6 0 9 11 7 10 -2 19 3 20 10 3 25 5 27 14 12 8 -13 10 -13 10 2 0 11 5
15 14 12 7 -3 16 2 20 11 3 9 10 13 16 10 6 -3 13 0 16 8 3 9 13 13 25 10 11
-3 19 0 19 7 0 6 10 10 23 9 12 -2 28 0 35 5 7 4 20 5 29 2 10 -4 14 -2 10 8
-5 11 0 13 24 6 20 -6 29 -5 29 3z"/>
<path d="M1036 2886 c6 -16 4 -17 -14 -7 -13 7 -23 7 -27 2 -3 -6 -13 -10 -23
-10 -40 -1 -52 -5 -53 -15 0 -6 -4 -2 -9 9 -7 17 -9 17 -9 3 -1 -17 -23 -24
-60 -19 -7 2 -11 -2 -8 -6 3 -5 -3 -15 -15 -22 -11 -7 -18 -8 -14 -3 3 5 -1 9
-9 9 -8 0 -13 -5 -12 -11 1 -6 -4 -10 -11 -8 -7 1 -15 -5 -18 -13 -3 -8 -10
-13 -14 -10 -5 3 -18 -4 -29 -16 -11 -12 -24 -18 -32 -14 -7 5 -10 4 -6 -2 4
-5 -5 -16 -19 -23 -18 -10 -21 -16 -12 -22 9 -5 8 -8 -5 -8 -10 0 -20 -7 -24
-16 -3 -8 -12 -13 -20 -10 -8 3 -12 2 -8 -3 8 -14 -5 -41 -20 -41 -7 0 -15
-14 -19 -31 -3 -17 -10 -28 -16 -24 -5 3 -10 -1 -10 -10 0 -13 -2 -14 -14 -3
-8 8 -10 15 -4 19 13 8 12 20 -2 29 -9 6 -9 13 -1 28 8 15 7 23 -5 33 -10 8
-12 15 -5 22 7 7 5 15 -7 24 -9 8 -11 12 -5 8 9 -4 13 2 13 19 0 14 -5 26 -11
26 -5 0 -7 5 -4 10 4 6 12 8 18 4 7 -3 3 2 -7 10 -11 9 -14 16 -7 16 7 0 10 4
7 8 -2 4 -47 7 -98 6 -60 -1 -96 3 -100 10 -6 8 -8 8 -8 -1 0 -8 -14 -11 -42
-9 -24 2 -48 2 -53 -1 -6 -2 -11 -29 -10 -61 0 -31 -4 -63 -10 -71 -7 -10 -7
-13 0 -9 12 7 13 -932 0 -952 -5 -7 -4 -11 1 -7 5 3 8 -82 8 -206 -1 -117 0
-216 3 -220 3 -4 11 -3 19 4 8 6 14 7 14 3 0 -5 22 -9 49 -9 27 0 48 2 46 6
-2 3 2 6 10 6 8 0 15 -3 15 -6 0 -4 22 -6 49 -6 27 0 48 2 46 6 -6 8 28 4 44
-5 8 -5 16 -4 21 4 4 6 10 11 14 11 18 -3 23 1 21 17 0 9 -4 23 -8 29 -4 6 -1
14 5 16 10 4 10 6 0 6 -9 1 -10 6 -2 20 7 14 7 22 0 26 -8 5 -7 12 2 23 10 12
10 14 1 8 -16 -9 -17 6 -1 22 9 9 9 12 -1 12 -11 0 -11 3 0 17 10 11 10 14 2
9 -7 -4 -13 -2 -13 3 0 6 4 11 10 11 5 0 7 7 4 15 -4 8 -11 12 -18 9 -6 -3 -2
2 8 10 15 12 16 16 5 16 -8 0 -10 3 -4 8 13 9 18 35 5 27 -14 -9 -13 8 2 23 9
9 9 12 -1 12 -11 0 -11 3 0 17 10 11 10 14 2 9 -7 -4 -13 -3 -13 3 0 5 6 12
13 14 9 4 9 6 -1 6 -9 1 -10 6 -2 20 7 14 7 22 0 26 -8 5 -7 12 2 23 10 12 10
14 0 8 -15 -9 -16 6 0 22 9 9 9 12 -1 12 -11 0 -11 3 0 17 10 11 10 14 2 9 -7
-4 -13 -2 -13 3 0 6 4 11 10 11 5 0 7 7 4 15 -4 8 -11 12 -18 9 -6 -3 -3 1 7
9 14 11 15 16 5 20 -10 4 -10 6 0 6 6 1 12 6 12 12 0 5 -6 7 -12 3 -10 -6 -10
-4 0 8 10 12 10 18 1 23 -8 6 -7 10 2 16 11 7 11 9 1 9 -10 0 -10 5 -1 21 8
15 8 19 0 15 -13 -9 -14 4 -1 24 6 9 5 17 -3 22 -7 5 -8 8 -1 8 6 0 10 20 9
45 0 25 3 45 7 45 4 0 4 7 1 17 -4 9 -2 14 3 11 5 -4 10 4 11 15 5 44 10 61
21 65 7 2 9 8 6 13 -3 6 2 20 13 31 12 15 13 19 3 14 -9 -5 -8 -2 2 7 10 8 15
17 11 20 -3 4 -1 7 6 7 7 0 10 4 6 9 -3 5 5 17 17 25 12 9 19 16 15 16 -5 0
13 19 38 43 25 24 42 47 38 51 -4 4 1 4 11 0 14 -5 17 -4 12 4 -4 7 -2 12 5
12 6 0 18 8 26 18 8 9 12 11 8 5 -8 -16 26 -5 40 13 6 7 24 14 40 16 17 1 33
7 37 13 5 6 8 5 8 -2 0 -7 5 -13 11 -13 5 0 7 5 4 10 -3 6 0 10 9 10 8 0 17
-6 19 -12 4 -10 6 -10 6 0 1 6 6 12 12 12 5 0 8 -4 5 -8 -8 -13 27 -11 43 2
12 9 13 8 6 -3 -6 -11 -2 -13 19 -9 16 3 26 1 26 -7 0 -6 7 -12 15 -13 8 -1
22 -3 30 -4 8 -1 13 -4 10 -6 -2 -3 6 -14 18 -26 13 -12 29 -30 37 -40 13 -18
13 -19 0 -12 -9 4 -8 1 3 -7 20 -16 23 -32 5 -21 -8 5 -7 1 2 -10 8 -10 15
-25 17 -34 1 -9 6 -18 12 -20 5 -2 6 -15 1 -32 -6 -20 -5 -30 3 -33 9 -3 8 -8
-2 -20 -7 -10 -9 -17 -4 -17 9 0 10 -43 3 -75 -1 -5 -1 -12 0 -15 6 -14 5 -67
-2 -82 -5 -10 -4 -19 2 -23 5 -3 10 -11 10 -16 0 -6 -4 -7 -10 -4 -6 4 -7 -2
-2 -17 7 -21 8 -58 2 -83 -1 -5 -1 -12 0 -15 6 -14 5 -67 -2 -82 -5 -10 -4
-19 2 -23 5 -3 10 -11 10 -16 0 -6 -4 -7 -10 -4 -6 4 -7 -2 -2 -17 7 -21 8
-58 2 -83 -1 -5 -1 -12 0 -15 6 -14 5 -67 -2 -82 -5 -10 -4 -19 2 -23 5 -3 10
-11 10 -16 0 -6 -4 -7 -10 -4 -6 4 -7 -2 -2 -17 7 -21 8 -58 2 -83 -1 -5 -1
-12 0 -15 6 -14 5 -67 -2 -82 -5 -10 -4 -19 2 -23 5 -3 10 -11 10 -16 0 -6 -5
-7 -10 -4 -6 4 -6 -2 1 -17 5 -13 19 -25 30 -25 12 -1 17 3 13 9 -5 7 -2 8 6
3 16 -10 81 -14 75 -5 -2 4 2 7 10 7 8 0 15 -3 15 -6 0 -4 23 -6 50 -6 28 0
50 3 50 8 0 4 4 6 8 3 18 -11 62 -14 68 -5 3 5 9 7 14 4 4 -3 10 9 12 25 4 24
2 27 -9 18 -11 -8 -12 -7 -7 6 3 9 9 16 13 16 3 0 6 31 6 69 0 38 -3 67 -6 65
-4 -2 -10 3 -13 12 -3 8 -2 13 3 10 5 -3 11 12 13 33 3 32 1 37 -10 29 -9 -8
-11 -7 -6 6 3 9 9 16 13 16 3 0 6 31 6 69 0 38 -3 67 -6 65 -4 -2 -10 3 -13
12 -3 8 -2 13 3 10 5 -3 11 12 13 33 3 32 1 37 -10 29 -9 -8 -11 -7 -6 6 3 9
9 16 13 16 11 0 -1 84 -13 92 -7 5 -4 8 8 8 17 0 17 1 2 25 -15 22 -15 26 -2
31 12 5 13 11 5 25 -7 14 -6 19 3 19 9 0 9 3 -2 10 -8 5 -10 10 -5 10 6 0 12
24 13 53 2 68 4 77 13 72 4 -3 10 2 13 11 4 10 2 13 -7 8 -8 -6 -8 -3 1 9 8 9
11 20 8 25 -3 5 4 20 17 34 12 13 22 30 22 38 0 8 6 21 15 28 13 12 13 13 0 7
-9 -4 -7 0 4 9 10 8 15 20 10 27 -4 8 -3 10 5 5 6 -4 14 0 17 8 3 9 11 13 18
9 6 -4 4 2 -4 12 -9 11 -10 16 -2 11 6 -4 12 -3 12 3 0 5 9 12 20 16 11 3 19
9 17 13 -1 4 1 8 6 9 4 2 18 13 30 26 12 13 28 22 36 19 8 -2 11 0 8 5 -3 5 3
15 15 22 11 7 17 8 13 2 -9 -16 6 -13 19 3 6 8 25 16 41 18 17 2 33 10 37 18
5 11 7 10 7 -5 1 -17 3 -17 11 -5 6 10 10 11 10 3 0 -7 5 -13 11 -13 5 0 7 5
4 10 -9 14 8 12 24 -2 10 -9 12 -9 7 -1 -3 6 -2 14 4 18 5 3 10 -2 10 -12 0
-15 2 -16 10 -3 5 8 10 10 10 5 0 -6 14 -12 32 -13 18 -2 35 -7 39 -13 3 -5
15 -11 27 -12 11 0 19 -4 16 -8 -2 -4 4 -15 14 -26 9 -10 13 -12 7 -3 -9 13
-8 13 7 2 9 -8 15 -19 12 -26 -3 -7 2 -19 11 -26 8 -7 15 -25 15 -41 0 -16 4
-29 10 -29 5 0 6 -7 3 -17 -4 -9 -2 -14 3 -10 5 3 10 -3 10 -14 0 -10 -7 -19
-16 -20 -10 0 -9 -3 5 -9 11 -5 16 -9 10 -9 -10 -1 -12 -77 -3 -87 3 -3 2 -21
-2 -40 -4 -19 -4 -36 0 -39 4 -3 4 -21 0 -40 -4 -19 -4 -37 0 -40 4 -3 4 -20
0 -39 -4 -19 -6 -37 -3 -40 7 -6 9 -156 3 -156 -3 0 -3 -27 0 -60 3 -33 3 -60
0 -60 -3 0 -3 -27 0 -60 3 -33 3 -60 0 -60 -3 0 -3 -27 0 -60 3 -33 3 -60 0
-60 -3 0 -3 -27 0 -60 3 -33 2 -60 -2 -60 -10 0 3 -32 19 -48 11 -11 17 -11
28 -2 8 7 15 8 15 4 0 -5 22 -9 49 -9 27 0 48 2 46 6 -2 3 2 6 10 6 8 0 15 -3
15 -6 0 -4 22 -6 49 -6 27 0 47 3 45 7 -3 5 6 4 20 -2 17 -6 27 -6 32 1 4 8
10 7 16 -2 8 -11 9 -10 5 2 -3 9 0 22 6 29 9 10 9 14 0 17 -9 3 -10 10 -3 24
9 15 7 19 -7 19 -15 0 -15 2 3 15 10 8 14 15 8 15 -10 0 -11 51 -1 67 3 5 2
15 -3 23 -5 9 -4 20 3 29 10 12 9 13 -3 6 -13 -8 -13 -7 -1 8 12 15 9 21 -11
18 -4 0 0 12 8 27 12 24 12 27 -2 30 -13 3 -13 6 3 18 10 7 13 14 7 14 -10 0
-11 51 -1 67 3 5 2 15 -3 23 -5 9 -4 20 3 29 10 12 9 13 -3 6 -13 -8 -13 -7
-1 8 12 15 9 21 -11 18 -4 0 0 12 8 27 12 24 12 27 -2 30 -13 3 -13 6 3 18 10
7 13 14 7 14 -10 0 -11 51 -1 67 3 5 2 15 -3 23 -5 9 -4 20 3 29 10 12 9 13
-3 6 -13 -8 -13 -7 -1 8 12 15 9 21 -11 18 -4 0 0 12 8 27 12 24 12 27 -2 30
-13 3 -13 6 3 18 10 7 13 14 7 14 -10 0 -11 51 -1 67 3 5 2 15 -3 23 -5 9 -4
20 3 29 10 12 9 13 -3 6 -13 -8 -13 -7 -1 8 12 15 9 21 -11 18 -4 0 0 12 8 27
12 24 12 27 -2 30 -13 3 -13 6 3 18 10 7 13 14 6 14 -9 0 -10 7 -3 26 6 14 6
23 1 20 -5 -3 -11 3 -14 14 -3 11 -2 19 2 18 17 -2 25 3 14 10 -6 4 -13 19
-15 32 -2 14 -7 31 -12 39 -7 10 -5 12 3 6 8 -5 7 3 -3 23 -8 16 -12 32 -9 36
4 3 1 6 -6 6 -7 0 -10 4 -6 9 3 5 -2 16 -10 24 -8 9 -15 23 -15 31 0 9 -5 16
-11 16 -5 0 -7 5 -3 12 4 7 3 8 -5 4 -6 -4 -14 0 -18 10 -9 25 -35 54 -48 54
-6 0 -16 9 -23 21 -8 12 -19 18 -28 15 -9 -3 -12 -1 -9 4 4 6 -7 13 -24 16
-17 4 -31 10 -31 15 0 5 -9 9 -20 9 -11 0 -20 5 -20 11 0 8 -6 7 -17 -2 -11
-10 -14 -10 -9 -1 7 11 -19 18 -48 13 -5 -1 -18 6 -30 16 -13 11 -16 12 -9 3
10 -13 7 -16 -18 -15 -17 0 -34 7 -39 15 -8 12 -10 11 -11 -5 0 -11 -3 -14 -6
-7 -4 10 -8 10 -21 0 -12 -10 -14 -10 -8 0 8 13 -6 17 -18 5 -15 -15 -38 -11
-32 5 5 14 4 14 -8 -1 -9 -11 -24 -17 -38 -15 -13 2 -22 -2 -21 -8 1 -6 -4
-11 -12 -11 -8 0 -12 5 -8 10 3 5 -6 1 -21 -8 -14 -10 -26 -14 -26 -10 0 5 -8
0 -19 -9 -10 -9 -22 -16 -27 -15 -22 4 -35 -2 -28 -13 5 -7 2 -9 -9 -5 -9 3
-26 -4 -41 -18 -13 -12 -27 -20 -30 -17 -3 3 -6 0 -6 -6 0 -7 -7 -12 -15 -12
-8 0 -15 -7 -15 -15 0 -9 -6 -12 -15 -9 -9 4 -15 0 -15 -10 0 -9 -7 -16 -16
-16 -8 0 -12 -4 -9 -10 3 -5 -1 -10 -9 -10 -10 0 -13 -6 -9 -17 4 -11 3 -14
-5 -9 -7 4 -12 2 -12 -4 0 -6 -5 -8 -10 -5 -6 4 -9 1 -8 -7 2 -7 -3 -12 -11
-10 -11 2 -12 0 -3 -11 9 -11 8 -18 -8 -32 -11 -10 -20 -15 -20 -10 0 4 8 14
18 22 11 10 8 10 -10 -1 -28 -16 -28 -16 -29 11 -1 16 -1 32 0 36 1 5 -3 6 -9
2 -5 -3 -10 1 -10 9 0 9 -6 16 -12 16 -10 0 -10 2 -1 8 9 6 7 12 -7 22 -11 8
-20 21 -20 29 0 8 -3 11 -6 8 -8 -7 -44 31 -44 45 0 5 -4 7 -9 3 -5 -3 -16 2
-24 10 -9 8 -20 15 -26 15 -6 0 -11 5 -11 11 0 5 -4 8 -9 5 -4 -3 -19 3 -31
14 -26 22 -35 26 -24 9 3 -6 -6 -3 -22 7 -19 13 -25 14 -19 5 7 -12 4 -11 -14
1 -12 8 -35 14 -52 12 -22 -3 -28 0 -23 9 6 9 4 9 -8 -1 -13 -10 -17 -10 -22
4 -6 15 -8 15 -24 1 -17 -15 -19 -15 -35 0 -15 15 -17 15 -23 -1 -6 -15 -7
-15 -20 1 -13 17 -14 17 -8 -1z m-26 -296 c0 -5 -5 -10 -11 -10 -5 0 -7 5 -4
10 3 6 8 10 11 10 2 0 4 -4 4 -10z m-310 -113 c0 -2 -10 -12 -22 -23 l-23 -19
19 23 c18 21 26 27 26 19z"/>
<path d="M730 920 c-9 -6 -10 -10 -3 -10 6 0 15 5 18 10 8 12 4 12 -15 0z"/>
<path d="M750 889 c0 -11 5 -17 10 -14 6 4 7 12 3 18 -4 7 0 6 10 -2 9 -7 17
-9 17 -3 0 8 -22 22 -36 22 -2 0 -4 -9 -4 -21z"/>
<path d="M4355 901 c-3 -5 -2 -12 3 -15 5 -3 9 1 9 9 0 17 -3 19 -12 6z"/>
<path d="M4322 882 c-10 -3 -8 -8 5 -18 17 -12 17 -13 -3 -8 -15 4 -27 -2 -41
-20 -14 -17 -23 -22 -31 -14 -7 7 -10 5 -9 -8 1 -10 -4 -19 -10 -19 -7 0 -12
-3 -10 -7 3 -9 -45 -44 -55 -40 -5 1 -7 -4 -5 -11 1 -6 -5 -11 -14 -11 -9 1
-16 -6 -15 -15 1 -9 -6 -15 -16 -15 -11 1 -15 -4 -10 -15 5 -14 4 -14 -11 -2
-15 12 -17 12 -11 -3 3 -9 1 -16 -4 -16 -6 0 -22 -10 -34 -22 -13 -13 -40 -32
-61 -42 -20 -10 -39 -28 -43 -38 -5 -16 -8 -17 -22 -6 -9 7 -13 9 -10 3 6 -10
-14 -35 -29 -36 -5 -1 -7 -5 -5 -10 1 -5 -1 -8 -5 -8 -25 4 -43 -2 -37 -13 5
-8 2 -9 -9 -5 -10 3 -17 2 -17 -3 0 -6 -7 -10 -15 -10 -7 0 -19 -8 -24 -17 -8
-14 -11 -15 -11 -3 0 12 -3 11 -11 -3 -6 -9 -14 -15 -20 -12 -5 4 -9 1 -9 -4
0 -6 -3 -10 -7 -10 -20 3 -34 -2 -28 -11 3 -6 -1 -10 -11 -10 -9 0 -23 -8 -31
-17 -8 -11 -11 -12 -7 -3 7 13 5 13 -9 1 -9 -7 -17 -10 -17 -5 0 4 -7 -1 -16
-12 -8 -10 -12 -12 -8 -4 6 11 2 10 -13 -3 -11 -9 -23 -14 -26 -10 -4 3 -7 1
-7 -6 0 -7 -4 -9 -10 -6 -5 3 -10 1 -10 -5 0 -6 -4 -9 -9 -6 -5 4 -12 0 -14
-6 -4 -10 -6 -9 -6 1 -1 9 -8 6 -21 -9 -11 -13 -20 -19 -20 -13 0 5 -6 10 -14
10 -8 0 -14 -5 -13 -11 1 -6 -8 -10 -20 -10 -13 1 -20 -3 -16 -9 4 -6 0 -8 -9
-4 -9 3 -21 0 -27 -6 -11 -11 -25 -15 -68 -19 -12 -1 -19 -6 -17 -10 3 -4 -7
-9 -23 -10 -52 -2 -58 -4 -56 -14 1 -7 -9 -9 -24 -6 -15 3 -23 1 -20 -4 3 -6
-3 -10 -14 -10 -10 0 -19 5 -19 11 0 5 -5 2 -11 -8 -9 -15 -13 -16 -27 -5 -13
11 -14 11 -7 -1 6 -11 4 -13 -8 -8 -10 3 -17 3 -17 -1 0 -4 -23 -8 -52 -9 -28
-1 -54 -7 -58 -13 -3 -5 -17 -10 -31 -10 -13 1 -49 0 -79 -2 -30 -1 -61 2 -69
6 -9 6 -12 5 -8 -1 12 -18 -22 -23 -33 -5 -10 15 -11 15 -6 0 4 -13 -1 -16
-22 -14 -15 1 -33 6 -41 10 -9 6 -12 5 -8 -1 4 -6 -4 -10 -18 -10 -15 0 -22 4
-18 11 3 6 0 6 -8 -2 -15 -14 -53 -17 -45 -3 7 10 -20 9 -30 -2 -4 -4 -13 -2
-20 4 -8 7 -14 7 -19 -1 -3 -5 -11 -10 -16 -10 -6 0 -8 4 -5 8 2 4 -4 8 -14 8
-10 0 -16 -4 -14 -8 3 -4 0 -8 -5 -8 -6 0 -11 6 -11 13 0 9 -3 8 -9 -2 -7 -11
-9 -11 -14 0 -5 12 -7 12 -15 0 -8 -11 -10 -11 -14 0 -4 12 -7 12 -22 0 -15
-12 -16 -12 -10 5 5 15 4 16 -6 7 -7 -7 -22 -8 -39 -4 -14 5 -32 6 -40 3 -7
-2 -17 2 -22 9 -7 12 -9 11 -9 -1 0 -13 -1 -13 -10 0 -8 13 -10 13 -10 1 0
-11 -4 -10 -16 5 -8 10 -12 12 -8 4 6 -12 5 -13 -7 -4 -8 5 -26 10 -41 9 -16
0 -28 4 -28 10 0 5 -5 3 -10 -5 -7 -10 -10 -11 -10 -2 0 8 -9 11 -24 8 -19 -3
-23 -1 -19 11 5 13 3 13 -15 4 -15 -8 -22 -8 -25 2 -4 9 -6 9 -6 -1 -1 -8 -8
-6 -23 7 -15 15 -25 18 -34 10 -8 -7 -14 -6 -19 1 -4 7 -18 10 -30 8 -16 -4
-22 -1 -18 9 4 9 -5 13 -32 13 -21 0 -34 4 -30 10 3 6 -1 7 -9 4 -9 -3 -16 -1
-16 5 0 6 -7 8 -15 5 -9 -4 -15 0 -15 7 0 11 -3 11 -10 -1 -6 -10 -10 -11 -10
-2 0 6 -6 12 -14 12 -8 0 -17 6 -19 13 -4 9 -6 8 -6 -2 -1 -10 -7 -7 -20 8
-23 26 -31 28 -42 9 -7 -10 -9 -10 -9 0 0 7 -4 10 -10 7 -5 -3 -10 1 -10 9 0
10 -9 16 -25 16 -14 0 -25 4 -25 9 0 8 -33 20 -57 22 -5 0 -12 7 -16 15 -4 8
-17 14 -27 14 -11 0 -20 5 -20 11 0 6 -7 9 -15 5 -9 -3 -15 0 -15 9 0 9 -10
15 -26 15 -14 0 -23 4 -19 10 3 5 -3 10 -14 10 -12 0 -21 5 -21 10 0 6 -7 10
-16 10 -8 0 -13 4 -9 9 3 6 -3 8 -15 6 -11 -2 -19 1 -17 8 1 6 -8 13 -21 15
-12 2 -20 8 -17 13 4 5 -1 9 -9 9 -9 0 -16 6 -16 13 0 8 -4 7 -10 -3 -8 -13
-10 -13 -10 2 0 9 -13 22 -30 30 -16 7 -30 17 -30 21 0 5 5 5 12 1 7 -4 8 -3
4 5 -6 9 -11 9 -24 -1 -13 -11 -14 -11 -7 1 6 11 4 13 -8 8 -11 -4 -14 -2 -10
9 3 8 -1 14 -9 14 -7 0 -20 9 -28 20 -8 11 -20 20 -28 20 -7 0 -10 5 -7 10 4
6 3 10 -2 9 -20 -3 -33 2 -33 14 0 8 -12 19 -26 26 -18 8 -24 17 -20 27 4 11
2 15 -8 11 -8 -3 -22 1 -33 9 -10 9 -12 13 -3 9 8 -4 6 1 -4 9 -11 9 -24 16
-29 16 -4 0 -5 5 -2 10 3 6 0 10 -8 10 -8 0 -17 6 -20 14 -7 17 -47 17 -47 0
0 -7 7 -15 16 -18 8 -3 12 -10 9 -16 -4 -6 1 -7 11 -3 10 3 15 2 12 -3 -6 -11
57 -75 66 -67 3 4 6 -2 6 -12 0 -10 3 -16 6 -12 3 3 24 -14 46 -38 22 -24 43
-44 47 -43 19 2 31 -3 26 -12 -3 -6 1 -10 10 -10 9 0 13 -4 10 -10 -3 -5 1
-10 9 -10 9 0 16 -4 16 -10 0 -5 6 -10 13 -10 7 0 18 -9 25 -20 7 -11 21 -20
33 -20 11 0 17 -5 14 -10 -3 -6 1 -10 9 -10 9 0 16 -4 16 -10 0 -5 7 -10 16
-10 8 0 12 -4 9 -10 -3 -6 1 -7 9 -4 9 4 18 -1 22 -10 3 -9 14 -16 24 -16 11
0 22 -5 25 -11 4 -6 13 -8 21 -5 8 3 13 2 13 -2 -1 -4 -1 -14 0 -22 1 -13 2
-13 11 0 8 13 10 12 10 -2 0 -11 8 -18 20 -18 11 0 20 -5 20 -11 0 -5 4 -8 9
-4 5 3 16 -2 25 -11 9 -8 21 -12 27 -8 7 4 9 3 5 -4 -6 -10 30 -28 47 -24 4 1
7 -2 7 -7 0 -5 7 -12 16 -15 10 -4 13 -2 9 7 -4 6 -1 5 7 -3 13 -16 71 -44 84
-40 4 1 10 -3 14 -10 4 -6 17 -12 28 -13 12 -1 22 -5 22 -9 0 -4 11 -8 25 -8
14 0 25 -6 25 -12 0 -10 2 -10 9 0 6 10 10 8 14 -9 5 -18 9 -21 18 -12 13 13
35 7 61 -15 10 -8 24 -12 31 -9 8 3 25 0 38 -7 29 -15 33 -16 60 -16 13 0 18
-4 13 -13 -6 -9 -4 -9 8 1 11 9 17 9 20 2 2 -6 25 -11 51 -12 26 0 47 -3 47
-7 0 -4 12 -8 27 -9 15 -1 30 -8 35 -15 6 -9 8 -9 8 2 0 10 3 11 13 2 10 -8
17 -7 25 1 9 9 12 9 12 -1 0 -7 6 -11 15 -8 8 4 17 2 20 -3 4 -6 11 -10 16
-10 6 0 8 4 5 9 -4 5 3 7 14 4 11 -3 18 -8 16 -12 -5 -8 58 -6 72 3 6 3 13 2
16 -3 7 -10 25 -9 44 2 7 5 12 3 12 -3 0 -7 6 -8 19 0 24 12 34 13 27 2 -5 -9
52 -7 61 1 3 3 15 2 28 -3 14 -5 26 -5 34 3 6 6 11 7 11 2 0 -10 59 -10 162
-2 27 2 45 0 41 -6 -3 -5 4 -4 16 2 12 7 26 9 31 6 6 -3 10 -2 10 4 0 5 12 8
26 5 14 -3 23 -1 21 3 -3 5 10 8 29 7 19 -1 34 2 34 7 0 5 5 9 11 9 5 0 8 -4
5 -9 -3 -4 6 -6 20 -3 19 3 22 7 12 14 -8 6 -2 7 20 4 17 -2 32 0 32 5 0 4 7
6 16 2 9 -3 20 0 25 8 7 12 9 12 9 -1 0 -12 2 -12 9 -2 4 7 19 14 32 14 13 1
30 6 38 12 11 8 13 8 7 -2 -7 -11 -4 -11 15 0 13 7 27 17 30 21 10 13 15 13
31 -1 13 -10 17 -10 22 3 4 11 2 14 -7 9 -6 -4 -9 -4 -5 1 4 4 22 9 39 10 17
2 35 8 39 15 6 9 9 9 13 -1 4 -11 6 -11 6 -1 1 7 6 10 11 7 6 -3 10 -2 10 4 0
5 9 8 20 6 11 -2 18 0 15 6 -6 9 7 13 31 10 7 -1 14 6 18 14 3 9 11 13 16 10
6 -4 16 -2 23 3 7 6 17 11 22 12 6 1 9 5 8 9 -1 4 10 8 24 9 31 2 45 11 38 23
-4 5 6 4 21 -1 24 -9 25 -9 14 5 -10 13 -9 15 9 15 11 0 21 5 21 11 0 5 5 7
10 4 6 -3 10 1 10 11 0 13 3 14 15 4 11 -9 15 -9 15 -1 0 7 5 9 10 6 6 -3 10
1 10 9 0 9 9 16 20 16 11 0 20 5 20 10 0 6 12 10 28 10 18 0 23 3 14 9 -10 6
-4 10 18 14 17 4 29 11 26 16 -3 5 1 12 10 15 8 3 12 2 9 -4 -3 -6 1 -7 10 -4
9 4 14 9 11 12 -3 2 15 18 39 34 25 17 45 35 45 41 0 7 5 5 10 -3 8 -13 10
-12 10 3 0 9 7 17 16 17 8 0 13 4 10 9 -3 5 8 14 24 20 17 5 30 13 30 16 0 3
-5 3 -12 -1 -7 -4 -8 -3 -4 4 4 7 13 12 21 12 17 0 121 102 117 114 -2 5 3 4
11 -3 12 -9 15 -8 13 6 0 10 5 17 12 16 6 -2 12 3 12 11 0 8 5 18 12 22 7 5 9
2 4 -7 -4 -8 0 -5 8 6 9 11 23 25 30 31 12 8 12 12 -2 20 -9 6 -23 9 -30 6z
m-3347 -202 c10 -11 16 -20 13 -20 -3 0 -13 9 -23 20 -10 11 -16 20 -13 20 3
0 13 -9 23 -20z m3015 -100 c0 -5 -5 -10 -11 -10 -5 0 -7 5 -4 10 3 6 8 10 11
10 2 0 4 -4 4 -10z m-2865 -10 c3 -5 1 -10 -4 -10 -6 0 -11 5 -11 10 0 6 2 10
4 10 3 0 8 -4 11 -10z"/>
</g>
</svg>
