<?xml version="1.0" encoding="utf-8"?><svg xmlns="http://www.w3.org/2000/svg" xmlns:xlink="http://www.w3.org/1999/xlink" width="2436" height="703" preserveAspectRatio="xMidYMid" viewBox="0 0 2436 703" style="z-index:1;display:block;background-color:rgb(36, 36, 36);animation-play-state:paused" ><g transform="translate(1218,351.5) scale(1,1) translate(-1218,-351.5)" style="animation-play-state:paused" ><defs style="animation-play-state:paused" ><filter id="blur-ugx7wizxylj-1" x="-1" y="-1" width="3" height="3" style="animation-play-state:paused" ><feGaussianBlur stdDeviation="3" style="animation-play-state:paused" ></feGaussianBlur></filter>
<filter id="blur-ugx7wizxylj-2" x="-1" y="-1" width="3" height="3" style="animation-play-state:paused" ><feGaussianBlur stdDeviation="1.5" style="animation-play-state:paused" ></feGaussianBlur></filter>
<filter id="blur-ugx7wizxylj-3" x="-1" y="-1" width="3" height="3" style="animation-play-state:paused" ><feGaussianBlur stdDeviation="1" style="animation-play-state:paused" ></feGaussianBlur></filter></defs>
<circle cx="383.90835700865915" cy="0" transform="matrix(1,0,0,1,0,584.421875)" r="12.888274984817022" fill="rgba(221, 238, 255, 0.7935483870967742)" opacity="0.7200000000000001" style="opacity:0.72;animation-play-state:paused" ></circle>
<circle cx="378.29293924517884" cy="0" transform="matrix(1,0,0,1,0,660.5029907226562)" r="8.536008407962868" fill="#444444" opacity="0.63" style="opacity:0.63;animation-play-state:paused" ></circle>
<circle cx="26.03205349648119" cy="0" transform="matrix(1,0,0,1,0,243.96571350097656)" r="15.917553539271465" fill="rgba(221, 238, 255, 0.7935483870967742)" opacity="0.7200000000000001" style="opacity:0.72;animation-play-state:paused" ></circle>
<circle cx="352.1597975084896" cy="0" transform="matrix(1,0,0,1,0,42.68737030029297)" r="6.570276293039777" fill="#444444" opacity="0.36000000000000004" style="opacity:0.36;animation-play-state:paused" ></circle>
<circle cx="2309.360139923793" cy="0" transform="matrix(1,0,0,1,0,277.8462219238281)" r="15.097311128566497" fill="#ff80aa" opacity="0.7200000000000001" style="opacity:0.72;animation-play-state:paused" ></circle>
<circle cx="2053.942989111302" cy="0" transform="matrix(1,0,0,1,0,132.8474578857422)" r="11.403937579158224" fill="#ff80aa" opacity="0.63" style="opacity:0.63;animation-play-state:paused" ></circle>
<circle cx="1968.6568264645598" cy="0" transform="matrix(1,0,0,1,0,642.8978881835938)" r="4.247424787198014" fill="#ff80aa" opacity="0.36000000000000004" style="opacity:0.36;animation-play-state:paused" ></circle>
<circle cx="1631.8655456146164" cy="0" transform="matrix(1,0,0,1,0,22.450511932373047)" r="13.313460850630435" fill="#444444" opacity="0.7200000000000001" style="opacity:0.72;animation-play-state:paused" ></circle>
<circle cx="1287.8799987386587" cy="0" transform="matrix(1,0,0,1,0,535.2644653320312)" r="6.307020414107514" fill="rgba(221, 238, 255, 0.7935483870967742)" opacity="0.36000000000000004" style="opacity:0.36;animation-play-state:paused" ></circle>
<circle cx="160.66040581200875" cy="0" transform="matrix(1,0,0,1,0,415.2378234863281)" r="14.549182937557719" fill="#ff80aa" opacity="0.7200000000000001" style="opacity:0.72;animation-play-state:paused" ></circle>
<circle cx="1154.5090217431814" cy="0" transform="matrix(1,0,0,1,0,81.9905776977539)" r="10.621005539111579" fill="rgba(221, 238, 255, 0.7935483870967742)" opacity="0.63" style="opacity:0.63;animation-play-state:paused" ></circle>
<circle cx="888.6742694014401" cy="0" transform="matrix(1,0,0,1,0,-12.355051040649414)" r="15.071192323124944" fill="rgba(221, 238, 255, 0.7935483870967742)" opacity="0.7200000000000001" style="opacity:0.72;animation-play-state:paused" ></circle>
<circle cx="1079.2161640754578" cy="0" transform="matrix(1,0,0,1,0,404.8180236816406)" r="11.517686338286175" fill="#444444" opacity="0.63" style="opacity:0.63;animation-play-state:paused" ></circle>
<circle cx="560.7893609546006" cy="0" transform="matrix(1,0,0,1,0,483.6463317871094)" r="8.296266358742585" fill="#444444" opacity="0.63" style="opacity:0.63;animation-play-state:paused" ></circle>
<circle cx="1148.143044074703" cy="0" transform="matrix(1,0,0,1,0,444.5166015625)" r="10.322912567076626" fill="rgba(221, 238, 255, 0.7935483870967742)" opacity="0.63" style="opacity:0.63;animation-play-state:paused" ></circle>
<circle cx="2294.463764392444" cy="0" transform="matrix(1,0,0,1,0,191.98789978027344)" r="15.534742610574737" fill="#ff80aa" opacity="0.7200000000000001" style="opacity:0.72;animation-play-state:paused" ></circle>
<circle cx="1205.6772808663482" cy="0" transform="matrix(1,0,0,1,0,371.4982604980469)" r="10.186817086271844" fill="rgba(221, 238, 255, 0.7935483870967742)" opacity="0.63" style="opacity:0.63;animation-play-state:paused" ></circle>
<circle cx="337.4053324054636" cy="0" transform="matrix(1,0,0,1,0,437.9396057128906)" r="9.843667134991277" fill="rgba(221, 238, 255, 0.7935483870967742)" opacity="0.63" style="opacity:0.63;animation-play-state:paused" ></circle>
<circle cx="1397.2740321935578" cy="0" transform="matrix(1,0,0,1,0,276.33428955078125)" r="13.308350582929048" fill="rgba(221, 238, 255, 0.7935483870967742)" opacity="0.7200000000000001" style="opacity:0.72;animation-play-state:paused" ></circle>
<circle cx="959.9568313461182" cy="0" transform="matrix(1,0,0,1,0,652.5648193359375)" r="15.44564340681229" fill="rgba(221, 238, 255, 0.7935483870967742)" opacity="0.7200000000000001" style="opacity:0.72;animation-play-state:paused" ></circle>
<circle cx="1616.2086805235522" cy="0" transform="matrix(1,0,0,1,0,528.8024291992188)" r="10.323426575199964" fill="#ff80aa" opacity="0.63" style="opacity:0.63;animation-play-state:paused" ></circle>
<circle cx="1221.674675363634" cy="0" transform="matrix(1,0,0,1,0,420.75433349609375)" r="13.933718517928641" fill="#ff80aa" opacity="0.7200000000000001" style="opacity:0.72;animation-play-state:paused" ></circle>
<circle cx="1734.8675209676558" cy="0" transform="matrix(1,0,0,1,0,53.29106521606445)" r="4.874564898327105" fill="rgba(221, 238, 255, 0.7935483870967742)" opacity="0.36000000000000004" style="opacity:0.36;animation-play-state:paused" ></circle>
<circle cx="2155.866669372606" cy="0" transform="matrix(1,0,0,1,0,58.067115783691406)" r="12.207520007888318" fill="#444444" opacity="0.7200000000000001" style="opacity:0.72;animation-play-state:paused" ></circle>
<circle cx="1293.0362030457677" cy="0" transform="matrix(1,0,0,1,0,249.27613830566406)" r="7.169445429416347" fill="#444444" opacity="0.36000000000000004" style="opacity:0.36;animation-play-state:paused" ></circle>
<circle cx="827.6070558645066" cy="0" transform="matrix(1,0,0,1,0,516.3579711914062)" r="7.4770632996388375" fill="#ff80aa" opacity="0.36000000000000004" style="opacity:0.36;animation-play-state:paused" ></circle>
<circle cx="1531.234375075565" cy="0" transform="matrix(1,0,0,1,0,88.91797637939453)" r="8.669161364436933" fill="#ff80aa" opacity="0.63" style="opacity:0.63;animation-play-state:paused" ></circle>
<circle cx="2057.1007599894792" cy="0" transform="matrix(1,0,0,1,0,201.2410888671875)" r="10.759571896047385" fill="#444444" opacity="0.63" style="opacity:0.63;animation-play-state:paused" ></circle>
<circle cx="928.3730724279383" cy="0" transform="matrix(1,0,0,1,0,487.4012145996094)" r="9.189947172780506" fill="#ff80aa" opacity="0.63" style="opacity:0.63;animation-play-state:paused" ></circle>
<circle cx="2021.1796686141101" cy="0" transform="matrix(1,0,0,1,0,297.0982971191406)" r="5.948427856498599" fill="#ff80aa" opacity="0.36000000000000004" style="opacity:0.36;animation-play-state:paused" ></circle>
<circle cx="2362.9493237325737" cy="0" transform="matrix(1,0,0,1,0,636.2268676757812)" r="4.357877295048807" fill="#444444" opacity="0.36000000000000004" style="opacity:0.36;animation-play-state:paused" ></circle>
<circle cx="447.24180889191103" cy="0" transform="matrix(1,0,0,1,0,115.98419952392578)" r="12.72429737497929" fill="#ff80aa" opacity="0.7200000000000001" style="opacity:0.72;animation-play-state:paused" ></circle>
<circle cx="557.4691580641588" cy="0" transform="matrix(1,0,0,1,0,427.44378662109375)" r="12.05621241890272" fill="#ff80aa" opacity="0.7200000000000001" style="opacity:0.72;animation-play-state:paused" ></circle>
<circle cx="659.4092113954182" cy="0" transform="matrix(1,0,0,1,0,497.39459228515625)" r="8.482783659159548" fill="#444444" opacity="0.63" style="opacity:0.63;animation-play-state:paused" ></circle>
<circle cx="487.33504475398416" cy="0" transform="matrix(1,0,0,1,0,103.21803283691406)" r="7.485727978357987" fill="rgba(221, 238, 255, 0.7935483870967742)" opacity="0.36000000000000004" style="opacity:0.36;animation-play-state:paused" ></circle>
<circle cx="659.789087625664" cy="0" transform="matrix(1,0,0,1,0,121.96086120605469)" r="13.123281125474053" fill="#444444" opacity="0.7200000000000001" style="opacity:0.72;animation-play-state:paused" ></circle>
<circle cx="1938.8559878730287" cy="0" transform="matrix(1,0,0,1,0,138.41236877441406)" r="12.00243507522842" fill="#ff80aa" opacity="0.7200000000000001" style="opacity:0.72;animation-play-state:paused" ></circle>
<circle cx="888.2889544480286" cy="0" transform="matrix(1,0,0,1,0,169.24154663085938)" r="5.753745498569885" fill="#444444" opacity="0.36000000000000004" style="opacity:0.36;animation-play-state:paused" ></circle>
<circle cx="2091.61110551957" cy="0" transform="matrix(1,0,0,1,0,41.366249084472656)" r="6.1323212918153125" fill="#444444" opacity="0.36000000000000004" style="opacity:0.36;animation-play-state:paused" ></circle>
<circle cx="1269.7682209779184" cy="0" transform="matrix(1,0,0,1,0,379.2335205078125)" r="12.98285328085551" fill="#444444" opacity="0.7200000000000001" style="opacity:0.72;animation-play-state:paused" ></circle>
<circle cx="1770.2381127025894" cy="0" transform="matrix(1,0,0,1,0,703.6732177734375)" r="14.222377369001189" fill="#ff80aa" opacity="0.7200000000000001" style="opacity:0.72;animation-play-state:paused" ></circle></g></svg>