<?xml version="1.0" encoding="utf-8"?><svg xmlns="http://www.w3.org/2000/svg" xmlns:xlink="http://www.w3.org/1999/xlink" width="2436" height="703" preserveAspectRatio="xMidYMid" viewBox="0 0 2436 703" style="z-index:1;display:block;animation-play-state:paused" ><g transform="translate(1218,351.5) scale(1,1) translate(-1218,-351.5)" style="animation-play-state:paused" ><defs style="animation-play-state:paused" ><filter id="blur-hi7hpht52o5-1" x="-1" y="-1" width="3" height="3" style="animation-play-state:paused" ><feGaussianBlur stdDeviation="3" style="animation-play-state:paused" ></feGaussianBlur></filter>
<filter id="blur-hi7hpht52o5-2" x="-1" y="-1" width="3" height="3" style="animation-play-state:paused" ><feGaussianBlur stdDeviation="1.5" style="animation-play-state:paused" ></feGaussianBlur></filter>
<filter id="blur-hi7hpht52o5-3" x="-1" y="-1" width="3" height="3" style="animation-play-state:paused" ><feGaussianBlur stdDeviation="1" style="animation-play-state:paused" ></feGaussianBlur></filter></defs>
<circle cx="740.2726880281473" cy="0" transform="matrix(1,0,0,1,0,326.9217834472656)" r="5.834651663178447" fill="#ff80aa" opacity="0.36000000000000004" style="opacity:0.36;animation-play-state:paused" ></circle>
<circle cx="837.3934238331835" cy="0" transform="matrix(1,0,0,1,0,157.16561889648438)" r="15.715549521205757" fill="rgba(221, 238, 255, 0.7935483870967742)" opacity="0.7200000000000001" style="opacity:0.72;animation-play-state:paused" ></circle>
<circle cx="1773.9576866554623" cy="0" transform="matrix(1,0,0,1,0,364.3904724121094)" r="7.455259172097273" fill="#444444" opacity="0.36000000000000004" style="opacity:0.36;animation-play-state:paused" ></circle>
<circle cx="2286.019420883112" cy="0" transform="matrix(1,0,0,1,0,239.97796630859375)" r="11.032698976902948" fill="#444444" opacity="0.63" style="opacity:0.63;animation-play-state:paused" ></circle>
<circle cx="1137.3894952619862" cy="0" transform="matrix(1,0,0,1,0,670.7545776367188)" r="14.240897741884504" fill="#444444" opacity="0.7200000000000001" style="opacity:0.72;animation-play-state:paused" ></circle>
<circle cx="678.6332857206933" cy="0" transform="matrix(1,0,0,1,0,666.2333374023438)" r="8.517684145310696" fill="rgba(221, 238, 255, 0.7935483870967742)" opacity="0.63" style="opacity:0.63;animation-play-state:paused" ></circle>
<circle cx="935.017148301318" cy="0" transform="matrix(1,0,0,1,0,363.3323059082031)" r="15.929291430784136" fill="rgba(221, 238, 255, 0.7935483870967742)" opacity="0.7200000000000001" style="opacity:0.72;animation-play-state:paused" ></circle>
<circle cx="740.2315125352229" cy="0" transform="matrix(1,0,0,1,0,96.15342712402344)" r="7.828586899171835" fill="#444444" opacity="0.36000000000000004" style="opacity:0.36;animation-play-state:paused" ></circle>
<circle cx="744.5763339740427" cy="0" transform="matrix(1,0,0,1,0,61.658714294433594)" r="12.904517569849643" fill="rgba(221, 238, 255, 0.7935483870967742)" opacity="0.7200000000000001" style="opacity:0.72;animation-play-state:paused" ></circle>
<circle cx="43.77108963904782" cy="0" transform="matrix(1,0,0,1,0,328.58123779296875)" r="4.3154322098638005" fill="rgba(221, 238, 255, 0.7935483870967742)" opacity="0.36000000000000004" style="opacity:0.36;animation-play-state:paused" ></circle>
<circle cx="295.5171726149982" cy="0" transform="matrix(1,0,0,1,0,571.188232421875)" r="11.06481282867606" fill="rgba(221, 238, 255, 0.7935483870967742)" opacity="0.63" style="opacity:0.63;animation-play-state:paused" ></circle>
<circle cx="2115.248071929202" cy="0" transform="matrix(1,0,0,1,0,510.22845458984375)" r="10.296412176245834" fill="#444444" opacity="0.63" style="opacity:0.63;animation-play-state:paused" ></circle>
<circle cx="717.4654457821883" cy="0" transform="matrix(1,0,0,1,0,484.0585021972656)" r="10.166883522061418" fill="#ff80aa" opacity="0.63" style="opacity:0.63;animation-play-state:paused" ></circle>
<circle cx="810.8492174665366" cy="0" transform="matrix(1,0,0,1,0,300.5522155761719)" r="15.595920683783694" fill="#444444" opacity="0.7200000000000001" style="opacity:0.72;animation-play-state:paused" ></circle>
<circle cx="333.85691232412114" cy="0" transform="matrix(1,0,0,1,0,468.45806884765625)" r="6.586285179883367" fill="#444444" opacity="0.36000000000000004" style="opacity:0.36;animation-play-state:paused" ></circle>
<circle cx="655.9827301339034" cy="0" transform="matrix(1,0,0,1,0,638.0042724609375)" r="5.731009422201111" fill="#ff80aa" opacity="0.36000000000000004" style="opacity:0.36;animation-play-state:paused" ></circle>
<circle cx="518.1119743532792" cy="0" transform="matrix(1,0,0,1,0,394.8843688964844)" r="15.333151656881652" fill="rgba(221, 238, 255, 0.7935483870967742)" opacity="0.7200000000000001" style="opacity:0.72;animation-play-state:paused" ></circle>
<circle cx="1407.2735518204945" cy="0" transform="matrix(1,0,0,1,0,634.8833618164062)" r="9.7125918565236" fill="#444444" opacity="0.63" style="opacity:0.63;animation-play-state:paused" ></circle>
<circle cx="1349.1752140091778" cy="0" transform="matrix(1,0,0,1,0,661.3482055664062)" r="9.680705942628247" fill="#444444" opacity="0.63" style="opacity:0.63;animation-play-state:paused" ></circle>
<circle cx="1769.3903927919018" cy="0" transform="matrix(1,0,0,1,0,219.35031127929688)" r="14.493101126273265" fill="rgba(221, 238, 255, 0.7935483870967742)" opacity="0.7200000000000001" style="opacity:0.72;animation-play-state:paused" ></circle>
<circle cx="1978.352988859899" cy="0" transform="matrix(1,0,0,1,0,432.7367858886719)" r="10.523037533760643" fill="#444444" opacity="0.63" style="opacity:0.63;animation-play-state:paused" ></circle>
<circle cx="2388.052216992256" cy="0" transform="matrix(1,0,0,1,0,141.4660186767578)" r="10.57298069347308" fill="#ff80aa" opacity="0.63" style="opacity:0.63;animation-play-state:paused" ></circle>
<circle cx="1843.1544263110038" cy="0" transform="matrix(1,0,0,1,0,448.2375183105469)" r="13.89496845330629" fill="rgba(221, 238, 255, 0.7935483870967742)" opacity="0.7200000000000001" style="opacity:0.72;animation-play-state:paused" ></circle>
<circle cx="813.1576224146148" cy="0" transform="matrix(1,0,0,1,0,365.38031005859375)" r="8.362612561980821" fill="#444444" opacity="0.63" style="opacity:0.63;animation-play-state:paused" ></circle>
<circle cx="715.224673616627" cy="0" transform="matrix(1,0,0,1,0,644.1992797851562)" r="6.750294593630327" fill="#ff80aa" opacity="0.36000000000000004" style="opacity:0.36;animation-play-state:paused" ></circle>
<circle cx="326.9120644498473" cy="0" transform="matrix(1,0,0,1,0,619.8869018554688)" r="8.561198891508424" fill="rgba(221, 238, 255, 0.7935483870967742)" opacity="0.63" style="opacity:0.63;animation-play-state:paused" ></circle>
<circle cx="286.72678153137906" cy="0" transform="matrix(1,0,0,1,0,590.4603271484375)" r="13.546532910630654" fill="#ff80aa" opacity="0.7200000000000001" style="opacity:0.72;animation-play-state:paused" ></circle>
<circle cx="1123.0255035580165" cy="0" transform="matrix(1,0,0,1,0,374.6175231933594)" r="7.4011369959726" fill="#ff80aa" opacity="0.36000000000000004" style="opacity:0.36;animation-play-state:paused" ></circle>
<circle cx="1489.5579456017517" cy="0" transform="matrix(1,0,0,1,0,654.9555053710938)" r="5.869906815528618" fill="#444444" opacity="0.36000000000000004" style="opacity:0.36;animation-play-state:paused" ></circle>
<circle cx="2254.497138350235" cy="0" transform="matrix(1,0,0,1,0,507.1501159667969)" r="10.491421022754558" fill="#ff80aa" opacity="0.63" style="opacity:0.63;animation-play-state:paused" ></circle>
<circle cx="745.1095543684472" cy="0" transform="matrix(1,0,0,1,0,134.36788940429688)" r="10.249407176164627" fill="rgba(221, 238, 255, 0.7935483870967742)" opacity="0.63" style="opacity:0.63;animation-play-state:paused" ></circle>
<circle cx="979.3601995311833" cy="0" transform="matrix(1,0,0,1,0,123.31452941894531)" r="4.86208108029321" fill="#444444" opacity="0.36000000000000004" style="opacity:0.36;animation-play-state:paused" ></circle>
<circle cx="1876.9404272659986" cy="0" transform="matrix(1,0,0,1,0,499.39501953125)" r="4.8972390187419315" fill="#444444" opacity="0.36000000000000004" style="opacity:0.36;animation-play-state:paused" ></circle>
<circle cx="1593.4332539538148" cy="0" transform="matrix(1,0,0,1,0,332.7816162109375)" r="15.443162102593694" fill="#ff80aa" opacity="0.7200000000000001" style="opacity:0.72;animation-play-state:paused" ></circle>
<circle cx="207.07634320171272" cy="0" transform="matrix(1,0,0,1,0,412.5121154785156)" r="14.468293174260058" fill="#444444" opacity="0.7200000000000001" style="opacity:0.72;animation-play-state:paused" ></circle>
<circle cx="624.1728868717026" cy="0" transform="matrix(1,0,0,1,0,574.0090942382812)" r="12.163008919483197" fill="#ff80aa" opacity="0.7200000000000001" style="opacity:0.72;animation-play-state:paused" ></circle>
<circle cx="2241.657791667505" cy="0" transform="matrix(1,0,0,1,0,501.9083557128906)" r="15.78105151101323" fill="rgba(221, 238, 255, 0.7935483870967742)" opacity="0.7200000000000001" style="opacity:0.72;animation-play-state:paused" ></circle>
<circle cx="27.796034174591124" cy="0" transform="matrix(1,0,0,1,0,292.64385986328125)" r="12.743637709701193" fill="rgba(221, 238, 255, 0.7935483870967742)" opacity="0.7200000000000001" style="opacity:0.72;animation-play-state:paused" ></circle>
<circle cx="409.5352207756623" cy="0" transform="matrix(1,0,0,1,0,582.4996948242188)" r="9.364207944149694" fill="rgba(221, 238, 255, 0.7935483870967742)" opacity="0.63" style="opacity:0.63;animation-play-state:paused" ></circle>
<circle cx="2155.1992056783392" cy="0" transform="matrix(1,0,0,1,0,25.19746208190918)" r="7.548769023180357" fill="rgba(221, 238, 255, 0.7935483870967742)" opacity="0.36000000000000004" style="opacity:0.36;animation-play-state:paused" ></circle>
<circle cx="1108.751516476134" cy="0" transform="matrix(1,0,0,1,0,8.055556297302246)" r="6.147019242839415" fill="#444444" opacity="0.36000000000000004" style="opacity:0.36;animation-play-state:paused" ></circle></g></svg>