<svg xmlns="http://www.w3.org/2000/svg" version="1.1" xmlns:xlink="http://www.w3.org/1999/xlink" xmlns:svgjs="http://svgjs.dev/svgjs" width="1000" height="1000" viewBox="0 0 1000 1000"><rect width="1000" height="1000" fill="#333366"></rect><g transform="matrix(0.7,0,0,0.7,149.57575757575762,282.1265587044535)"><svg viewBox="0 0 396 247" data-background-color="#333366" preserveAspectRatio="xMidYMid meet" height="623" width="1000" xmlns="http://www.w3.org/2000/svg" xmlns:xlink="http://www.w3.org/1999/xlink"><g id="tight-bounds" transform="matrix(1,0,0,1,0.2400000000000091,-0.09999999999999432)"><svg viewBox="0 0 395.52 247.2" height="247.2" width="395.52"><g><svg></svg></g><g><svg viewBox="0 0 395.52 247.2" height="247.2" width="395.52"><g transform="matrix(1,0,0,1,75.54432,95.75483185837663)"><svg viewBox="0 0 244.43135999999998 55.69033628324674" height="55.69033628324674" width="244.43135999999998"><g><svg viewBox="0 0 244.43135999999998 55.69033628324674" height="55.69033628324674" width="244.43135999999998"><g><svg viewBox="0 0 244.43135999999998 55.69033628324674" height="55.69033628324674" width="244.43135999999998"><g><svg viewBox="0 0 244.43135999999998 55.69033628324674" height="55.69033628324674" width="244.43135999999998"><g><svg viewBox="0 0 244.43135999999998 55.69033628324674" height="55.69033628324674" width="244.43135999999998"><g><svg viewBox="0 0 244.43135999999998 30.03670630721003" height="30.03670630721003" width="244.43135999999998"><g transform="matrix(1,0,0,1,0,0)"><svg width="244.43135999999998" viewBox="4.050000190734863 -38.70000076293945 318.9700012207031 39.20000076293945" height="30.03670630721003" data-palette-color="#ffffff"><path d="M4.05-20.7L8.2-20.7 8.6-16.05 8.4-16.45Q9.55-18.8 11.68-20.15 13.8-21.5 16.55-21.5L16.55-21.5Q18.3-21.5 19.65-20.95 21-20.4 21.88-19.38 22.75-18.35 23-16.85L23-16.85 22.75-16.7Q23.95-18.95 26.08-20.23 28.2-21.5 30.55-21.5L30.55-21.5Q33.6-21.5 35.38-19.78 37.15-18.05 37.2-15.3L37.2-15.3 37.2 0 32.55 0 32.55-13.65Q32.5-15.25 31.78-16.32 31.05-17.4 29.25-17.5L29.25-17.5Q27.45-17.5 26.03-16.4 24.6-15.3 23.8-13.58 23-11.85 22.95-9.85L22.95-9.85 22.95 0 18.3 0 18.3-13.65Q18.25-15.25 17.48-16.32 16.7-17.4 14.9-17.5L14.9-17.5Q13.05-17.5 11.65-16.4 10.25-15.3 9.47-13.55 8.7-11.8 8.7-9.8L8.7-9.8 8.7 0 4.05 0 4.05-20.7ZM45.3 0L45.3-20.7 49.95-20.7 49.95 0 45.3 0ZM44.95-28.2L44.95-28.2Q44.95-29.3 45.82-30.05 46.7-30.8 47.75-30.8L47.75-30.8Q48.8-30.8 49.62-30.05 50.45-29.3 50.45-28.2L50.45-28.2Q50.45-27.05 49.62-26.33 48.8-25.6 47.75-25.6L47.75-25.6Q46.7-25.6 45.82-26.35 44.95-27.1 44.95-28.2ZM58-20.7L62.15-20.7 62.55-15.65 62.35-16.45Q63.35-18.75 65.6-20.13 67.85-21.5 70.8-21.5L70.8-21.5Q73.75-21.5 75.62-19.78 77.5-18.05 77.55-15.3L77.55-15.3 77.55 0 72.85 0 72.85-13.65Q72.8-15.35 71.87-16.43 70.95-17.5 69-17.5L69-17.5Q67.2-17.5 65.75-16.5 64.3-15.5 63.47-13.75 62.65-12 62.65-9.7L62.65-9.7 62.65 0 58 0 58-20.7ZM85.64 0L85.64-20.7 90.29-20.7 90.29 0 85.64 0ZM85.29-28.2L85.29-28.2Q85.29-29.3 86.17-30.05 87.04-30.8 88.09-30.8L88.09-30.8Q89.14-30.8 89.97-30.05 90.79-29.3 90.79-28.2L90.79-28.2Q90.79-27.05 89.97-26.33 89.14-25.6 88.09-25.6L88.09-25.6Q87.04-25.6 86.17-26.35 85.29-27.1 85.29-28.2ZM98.34-20.7L102.49-20.7 102.89-16.05 102.69-16.45Q103.84-18.8 105.97-20.15 108.09-21.5 110.84-21.5L110.84-21.5Q112.59-21.5 113.94-20.95 115.29-20.4 116.17-19.38 117.04-18.35 117.29-16.85L117.29-16.85 117.04-16.7Q118.24-18.95 120.37-20.23 122.49-21.5 124.84-21.5L124.84-21.5Q127.89-21.5 129.67-19.78 131.44-18.05 131.49-15.3L131.49-15.3 131.49 0 126.84 0 126.84-13.65Q126.79-15.25 126.07-16.32 125.34-17.4 123.54-17.5L123.54-17.5Q121.74-17.5 120.32-16.4 118.89-15.3 118.09-13.58 117.29-11.85 117.24-9.85L117.24-9.85 117.24 0 112.59 0 112.59-13.65Q112.54-15.25 111.77-16.32 110.99-17.4 109.19-17.5L109.19-17.5Q107.34-17.5 105.94-16.4 104.54-15.3 103.77-13.55 102.99-11.8 102.99-9.8L102.99-9.8 102.99 0 98.34 0 98.34-20.7ZM148.19 0.5L148.19 0.5Q145.29 0.5 142.91-0.75 140.54-2 139.16-4.42 137.79-6.85 137.79-10.35L137.79-10.35Q137.79-13.8 139.24-16.32 140.69-18.85 143.11-20.2 145.54-21.55 148.44-21.55L148.44-21.55Q151.34-21.55 153.34-20.23 155.34-18.9 156.39-17.1L156.39-17.1 156.09-16.3 156.54-20.7 160.84-20.7 160.84 0 156.19 0 156.19-5.4 156.69-4.2Q156.49-3.7 155.81-2.93 155.14-2.15 154.01-1.35 152.89-0.55 151.44-0.03 149.99 0.5 148.19 0.5ZM149.44-3.35L149.44-3.35Q151.19-3.35 152.59-4 153.99-4.65 154.91-5.83 155.84-7 156.19-8.65L156.19-8.65 156.19-12.7Q155.79-14.2 154.79-15.33 153.79-16.45 152.39-17.07 150.99-17.7 149.29-17.7L149.29-17.7Q147.44-17.7 145.89-16.8 144.34-15.9 143.41-14.3 142.49-12.7 142.49-10.55L142.49-10.55Q142.49-8.55 143.44-6.9 144.39-5.25 145.99-4.3 147.59-3.35 149.44-3.35ZM168.89 0L168.89-38.7 173.54-38.7 173.54 0 168.89 0ZM209.98 0.5L209.98 0.5Q207.13 0.5 204.96-0.75 202.78-2 201.48-3.9L201.48-3.9 202.03-5.35 202.03 0 197.38 0 197.38-38.7 201.98-38.7 201.98-15.95 201.83-17.7Q203.08-19.4 205.41-20.48 207.73-21.55 210.58-21.55L210.58-21.55Q213.38-21.55 215.68-20.2 217.98-18.85 219.36-16.43 220.73-14 220.73-10.65L220.73-10.65Q220.73-7.15 219.26-4.65 217.78-2.15 215.33-0.83 212.88 0.5 209.98 0.5ZM209.03-3.45L209.03-3.45Q211.03-3.45 212.63-4.4 214.23-5.35 215.13-6.98 216.03-8.6 216.03-10.7L216.03-10.7Q216.03-12.7 215.11-14.33 214.18-15.95 212.61-16.9 211.03-17.85 209.03-17.85L209.03-17.85Q207.33-17.85 205.88-17.2 204.43-16.55 203.43-15.43 202.43-14.3 202.03-12.8L202.03-12.8 202.03-8.65Q202.43-7.15 203.38-5.98 204.33-4.8 205.78-4.13 207.23-3.45 209.03-3.45ZM225.23-10.55L225.23-10.55Q225.23-13.65 226.7-16.15 228.18-18.65 230.78-20.1 233.38-21.55 236.68-21.55L236.68-21.55Q240.08-21.55 242.63-20.1 245.18-18.65 246.58-16.15 247.98-13.65 247.98-10.55L247.98-10.55Q247.98-7.45 246.58-4.93 245.18-2.4 242.6-0.95 240.03 0.5 236.63 0.5L236.63 0.5Q233.33 0.5 230.75-0.88 228.18-2.25 226.7-4.73 225.23-7.2 225.23-10.55ZM229.88-10.5L229.88-10.5Q229.88-8.5 230.78-6.88 231.68-5.25 233.2-4.3 234.73-3.35 236.58-3.35L236.58-3.35Q238.53-3.35 240.05-4.3 241.58-5.25 242.43-6.88 243.28-8.5 243.28-10.5L243.28-10.5Q243.28-12.5 242.43-14.13 241.58-15.75 240.05-16.73 238.53-17.7 236.58-17.7L236.58-17.7Q234.68-17.7 233.15-16.7 231.63-15.7 230.75-14.08 229.88-12.45 229.88-10.5ZM262.88 0.5L262.88 0.5Q259.98 0.5 257.6-0.75 255.23-2 253.85-4.42 252.48-6.85 252.48-10.35L252.48-10.35Q252.48-13.8 253.93-16.32 255.38-18.85 257.8-20.2 260.23-21.55 263.13-21.55L263.13-21.55Q266.03-21.55 268.03-20.23 270.03-18.9 271.08-17.1L271.08-17.1 270.78-16.3 271.23-20.7 275.53-20.7 275.53 0 270.88 0 270.88-5.4 271.38-4.2Q271.18-3.7 270.5-2.93 269.83-2.15 268.7-1.35 267.58-0.55 266.13-0.03 264.68 0.5 262.88 0.5ZM264.13-3.35L264.13-3.35Q265.88-3.35 267.28-4 268.68-4.65 269.6-5.83 270.53-7 270.88-8.65L270.88-8.65 270.88-12.7Q270.48-14.2 269.48-15.33 268.48-16.45 267.08-17.07 265.68-17.7 263.98-17.7L263.98-17.7Q262.13-17.7 260.58-16.8 259.03-15.9 258.1-14.3 257.18-12.7 257.18-10.55L257.18-10.55Q257.18-8.55 258.13-6.9 259.08-5.25 260.68-4.3 262.28-3.35 264.13-3.35ZM283.57-20.7L287.72-20.7 288.17-14.7 287.92-15.5Q288.72-17.4 290.25-18.73 291.77-20.05 293.45-20.78 295.12-21.5 296.37-21.5L296.37-21.5 296.12-16.9Q293.77-17.05 292-16 290.22-14.95 289.2-13.2 288.17-11.45 288.17-9.45L288.17-9.45 288.17 0 283.57 0 283.57-20.7ZM309.87 0.5L309.87 0.5Q307.02 0.5 304.7-0.88 302.37-2.25 301.02-4.78 299.67-7.3 299.67-10.6L299.67-10.6Q299.67-14.05 301.1-16.5 302.52-18.95 304.97-20.25 307.42-21.55 310.47-21.55L310.47-21.55Q312.92-21.55 315.15-20.5 317.37-19.45 318.62-17.6L318.62-17.6 318.42-15.95 318.42-38.7 323.02-38.7 323.02 0 318.37 0 318.37-5.15 318.87-3.85Q317.42-1.95 315.12-0.73 312.82 0.5 309.87 0.5ZM311.32-3.45L311.32-3.45Q313.17-3.45 314.62-4.13 316.07-4.8 317.02-6 317.97-7.2 318.37-8.85L318.37-8.85 318.37-12.75Q317.97-14.25 316.95-15.38 315.92-16.5 314.5-17.18 313.07-17.85 311.32-17.85L311.32-17.85Q309.42-17.85 307.85-16.93 306.27-16 305.32-14.4 304.37-12.8 304.37-10.7L304.37-10.7Q304.37-8.65 305.32-7.03 306.27-5.4 307.87-4.42 309.47-3.45 311.32-3.45Z" opacity="1" transform="matrix(1,0,0,1,0,0)" fill="#ffffff" class="undefined-text-0" data-fill-palette-color="primary" id="text-0"></path></svg></g></svg></g><g transform="matrix(1,0,0,1,0,37.127651785390945)"><svg viewBox="0 0 244.43135999999998 18.5626844978558" height="18.5626844978558" width="244.43135999999998"><g transform="matrix(1,0,0,1,0,0)"><svg width="244.43135999999998" viewBox="2 -37.9900016784668 651.6500244140625 49.4900016784668" height="18.5626844978558" data-palette-color="#ff6699"><path d="M17.04-18.51Q17.04-19.53 16.56-20.25 16.09-20.97 15.33-21.42 14.58-21.88 13.65-22.08 12.72-22.29 11.84-22.29L11.84-22.29Q10.86-22.29 10.05-22.07 9.23-21.85 8.64-21.44 8.06-21.02 7.73-20.42 7.4-19.82 7.4-19.09L7.4-19.09Q7.4-17.82 8.17-17.08 8.94-16.33 10.74-15.7L10.74-15.7 15.6-13.99Q18.73-12.94 20.17-11.13 21.61-9.33 21.61-6.81L21.61-6.81Q21.61-5.13 20.94-3.72 20.26-2.32 19.03-1.33 17.8-0.34 16.06 0.21 14.33 0.76 12.21 0.76L12.21 0.76Q9.25 0.76 7.4-0.2 5.54-1.15 4.54-2.71L4.54-2.71 2-2.71 2-6.91 7.06-6.91Q7.06-5.86 7.51-5.11 7.96-4.37 8.7-3.91 9.45-3.44 10.39-3.22 11.33-3 12.3-3L12.3-3Q13.26-3 14.14-3.23 15.01-3.47 15.69-3.92 16.36-4.37 16.75-5 17.14-5.64 17.14-6.45L17.14-6.45Q17.14-7.67 16.35-8.52 15.55-9.38 13.65-10.06L13.65-10.06 8.81-11.87Q5.86-12.92 4.43-14.54 3-16.16 3-18.6L3-18.6Q3-20.21 3.6-21.58 4.2-22.95 5.33-23.94 6.47-24.93 8.11-25.49 9.74-26.05 11.84-26.05L11.84-26.05Q14.55-26.05 16.38-25.29 18.21-24.54 19.68-22.71L19.68-22.71 22.05-22.71 22.05-18.51 17.04-18.51ZM50.95-21.09L50.95-25.29 59.21-25.29 59.21-4.2 63.02-4.2 63.02 0 51 0 51-4.2 54.62-4.2 54.62-21.09 50.95-21.09ZM53.76-34.25L53.76-34.25Q53.76-34.89 54.02-35.46 54.27-36.04 54.7-36.46 55.13-36.89 55.72-37.15 56.3-37.4 56.96-37.4L56.96-37.4Q57.6-37.4 58.17-37.15 58.74-36.89 59.17-36.46 59.6-36.04 59.85-35.46 60.11-34.89 60.11-34.25L60.11-34.25Q60.11-33.59 59.85-33.01 59.6-32.42 59.17-31.97 58.74-31.52 58.17-31.26 57.6-31.01 56.96-31.01L56.96-31.01Q56.3-31.01 55.72-31.26 55.13-31.52 54.7-31.97 54.27-32.42 54.02-33.01 53.76-33.59 53.76-34.25ZM91.66-21.09L91.66-25.29 99.71-25.29 99.71-22.34 99.76-22.34Q100.59-23.05 101.51-23.67 102.42-24.29 103.42-24.76 104.42-25.22 105.51-25.49 106.6-25.76 107.77-25.76L107.77-25.76Q110.5-25.76 112.48-24.74 114.46-23.73 115.53-21.58L115.53-21.58Q116.46-22.41 117.49-23.18 118.51-23.95 119.62-24.51 120.73-25.07 121.95-25.42 123.17-25.76 124.49-25.76L124.49-25.76Q126.54-25.76 128.18-25.2 129.81-24.63 130.96-23.49 132.11-22.34 132.71-20.54 133.31-18.75 133.31-16.31L133.31-16.31 133.31-4.2 136.82-4.2 136.82 0 125 0 125-4.2 128.57-4.2 128.57-15.75Q128.57-18.65 127.1-20.15 125.64-21.66 122.88-21.66L122.88-21.66Q121.25-21.66 119.54-20.87 117.83-20.09 116.61-18.9L116.61-18.9 116.61-4.2 120.1-4.2 120.1 0 108.31 0 108.31-4.2 111.87-4.2 111.87-15.75Q111.87-18.65 110.39-20.15 108.92-21.66 106.16-21.66L106.16-21.66Q104.57-21.66 102.96-20.9 101.35-20.14 99.91-19.02L99.91-19.02 99.91-4.2 103.47-4.2 103.47 0 91.66 0 91.66-4.2 95.17-4.2 95.17-21.09 91.66-21.09ZM165.17-21.09L165.17-25.29 173.23-25.29 173.23-23.19Q174.84-24.44 176.74-25.17 178.65-25.9 180.67-25.9L180.67-25.9Q183.16-25.9 185.24-24.98 187.31-24.05 188.81-22.36 190.31-20.68 191.15-18.32 191.98-15.97 191.98-13.11L191.98-13.11Q191.98-10.06 191.05-7.54 190.12-5.03 188.47-3.23 186.82-1.44 184.55-0.44 182.28 0.56 179.57 0.56L179.57 0.56Q177.64 0.56 176.14 0.16 174.64-0.24 173.27-0.88L173.27-0.88 173.27 7.3 177.23 7.3 177.23 11.5 165.22 11.5 165.22 7.3 168.68 7.3 168.68-21.09 165.17-21.09ZM179.48-21.9L179.48-21.9Q177.72-21.9 176.09-21.19 174.47-20.48 173.27-19.24L173.27-19.24 173.27-5.54Q174.08-4.71 175.58-4.05 177.08-3.39 179.33-3.39L179.33-3.39Q180.89-3.39 182.33-4 183.77-4.61 184.87-5.82 185.97-7.03 186.63-8.81 187.29-10.6 187.29-12.94L187.29-12.94Q187.29-15.09 186.67-16.75 186.04-18.41 184.98-19.56 183.92-20.7 182.5-21.3 181.09-21.9 179.48-21.9ZM220.93-33.79L220.93-37.99 229.14-37.99 229.14-4.2 232.94-4.2 232.94 0 220.93 0 220.93-4.2 224.59-4.2 224.59-33.79 220.93-33.79ZM284.36-12.06L266.15-12.06Q266.15-10.99 266.31-10.1 266.47-9.2 266.76-8.4L266.76-8.4Q267.66-5.96 269.65-4.72 271.64-3.49 274.16-3.49L274.16-3.49Q276.14-3.49 278-4.04 279.87-4.59 281.92-5.76L281.92-5.76 283.75-2.66Q281.26-0.95 278.75-0.12 276.23 0.71 273.52 0.71L273.52 0.71Q270.96 0.71 268.77-0.15 266.59-1 265.01-2.69 263.44-4.37 262.55-6.88 261.66-9.4 261.66-12.74L261.66-12.74Q261.66-15.45 262.41-17.86 263.17-20.26 264.67-22.06 266.17-23.85 268.4-24.9 270.62-25.95 273.57-25.95L273.57-25.95Q276.43-25.95 278.34-25.09 280.26-24.22 281.47-22.79 282.68-21.36 283.3-19.53 283.92-17.7 284.17-15.8L284.17-15.8Q284.29-14.87 284.33-13.92 284.36-12.96 284.36-12.06L284.36-12.06ZM273.25-22.14L273.25-22.14Q271.67-22.14 270.48-21.69 269.3-21.24 268.47-20.4 267.64-19.56 267.14-18.33 266.64-17.11 266.39-15.6L266.39-15.6 279.5-15.6Q279.41-17.02 279.05-18.21 278.7-19.41 277.97-20.29 277.23-21.17 276.09-21.66 274.94-22.14 273.25-22.14ZM312.56 0Q312.56 0 312.56 0ZM365.28 0L365.28-2.34Q363.84-1 362.09-0.15 360.34 0.71 358.12 0.71L358.12 0.71Q356.27 0.71 354.72 0.12 353.17-0.46 352.04-1.48 350.92-2.49 350.3-3.83 349.68-5.18 349.68-6.69L349.68-6.69Q349.68-8.3 350.15-9.55 350.63-10.79 351.42-11.71 352.21-12.62 353.28-13.24 354.34-13.87 355.5-14.25 356.66-14.62 357.87-14.78 359.07-14.94 360.17-14.94L360.17-14.94Q361.93-14.94 363.13-14.83 364.32-14.72 365.3-14.53L365.3-14.53 365.32-16.6Q365.32-17.94 364.93-18.93 364.54-19.92 363.84-20.57 363.13-21.22 362.14-21.53 361.15-21.85 359.93-21.85L359.93-21.85Q358.78-21.85 357.73-21.69 356.68-21.53 355.77-21.28 354.85-21.02 354.08-20.69 353.31-20.36 352.78-20L352.78-20 351.29-23.14Q352.19-23.73 353.26-24.23 354.34-24.73 355.52-25.09 356.71-25.44 357.94-25.65 359.17-25.85 360.37-25.85L360.37-25.85Q362.57-25.85 364.32-25.33 366.08-24.8 367.3-23.71 368.52-22.61 369.18-20.91 369.84-19.21 369.84-16.85L369.84-16.85 369.82-4.2 372.62-4.2 372.62 0 365.28 0ZM359.12-3.1L359.12-3.1Q360.03-3.1 360.93-3.32 361.83-3.54 362.64-3.92 363.44-4.3 364.13-4.8 364.81-5.3 365.28-5.83L365.28-5.83 365.3-11.55 360.03-11.55Q358.71-11.55 357.62-11.25 356.54-10.96 355.74-10.4 354.95-9.84 354.51-9.01 354.07-8.18 354.07-7.1L354.07-7.1Q354.07-6.1 354.44-5.36 354.8-4.61 355.47-4.11 356.15-3.61 357.07-3.36 358-3.1 359.12-3.1ZM416.82-18.51Q416.82-19.53 416.34-20.25 415.86-20.97 415.11-21.42 414.35-21.88 413.42-22.08 412.5-22.29 411.62-22.29L411.62-22.29Q410.64-22.29 409.82-22.07 409-21.85 408.42-21.44 407.83-21.02 407.5-20.42 407.17-19.82 407.17-19.09L407.17-19.09Q407.17-17.82 407.94-17.08 408.71-16.33 410.52-15.7L410.52-15.7 415.38-13.99Q418.5-12.94 419.94-11.13 421.38-9.33 421.38-6.81L421.38-6.81Q421.38-5.13 420.71-3.72 420.04-2.32 418.81-1.33 417.57-0.34 415.84 0.21 414.11 0.76 411.98 0.76L411.98 0.76Q409.03 0.76 407.17-0.2 405.32-1.15 404.32-2.71L404.32-2.71 401.78-2.71 401.78-6.91 406.83-6.91Q406.83-5.86 407.28-5.11 407.73-4.37 408.48-3.91 409.22-3.44 410.16-3.22 411.1-3 412.08-3L412.08-3Q413.03-3 413.91-3.23 414.79-3.47 415.46-3.92 416.13-4.37 416.52-5 416.91-5.64 416.91-6.45L416.91-6.45Q416.91-7.67 416.12-8.52 415.33-9.38 413.42-10.06L413.42-10.06 408.59-11.87Q405.63-12.92 404.21-14.54 402.78-16.16 402.78-18.6L402.78-18.6Q402.78-20.21 403.38-21.58 403.97-22.95 405.11-23.94 406.25-24.93 407.88-25.49 409.52-26.05 411.62-26.05L411.62-26.05Q414.33-26.05 416.16-25.29 417.99-24.54 419.45-22.71L419.45-22.71 421.82-22.71 421.82-18.51 416.82-18.51ZM448.48 0Q448.48 0 448.48 0ZM493.65-33.45L493.65-25.29 499.59-25.29 499.59-21.61 493.6-21.61 493.53-7.01Q493.53-5.52 493.87-4.59 494.21-3.66 494.97-3.31 495.73-2.95 496.68-2.95L496.68-2.95Q497.71-2.95 498.49-3.14 499.27-3.32 500.2-3.76L500.2-3.76 501.25-0.71Q500.07-0.1 498.78 0.26 497.49 0.61 495.73 0.61L495.73 0.61Q494.07 0.61 492.83 0.21 491.6-0.2 490.76-1.15 489.92-2.1 489.5-3.7 489.09-5.3 489.09-7.69L489.09-7.69 489.16-21.61 485.13-21.61 485.13-25.29 489.21-25.29 489.21-31.35 493.65-33.45ZM529.74-33.79L529.74-37.99 537.75-37.99 537.75-22.51 537.89-22.51Q538.58-23.19 539.47-23.79 540.36-24.39 541.34-24.83 542.31-25.27 543.36-25.51 544.41-25.76 545.56-25.76L545.56-25.76Q547.59-25.76 549.22-25.2 550.86-24.63 552-23.49 553.15-22.34 553.77-20.54 554.4-18.75 554.4-16.31L554.4-16.31 554.4-4.2 558.21-4.2 558.21 0 546.19 0 546.19-4.2 549.66-4.2 549.66-15.75Q549.66-18.65 548.18-20.15 546.71-21.66 543.95-21.66L543.95-21.66Q542.39-21.66 540.77-20.91 539.16-20.17 537.75-19.04L537.75-19.04 537.75-4.2 541.41-4.2 541.41 0 529.4 0 529.4-4.2 533.21-4.2 533.21-33.79 529.74-33.79ZM601.79 0L601.79-2.34Q600.35-1 598.6-0.15 596.86 0.71 594.63 0.71L594.63 0.71Q592.78 0.71 591.23 0.12 589.68-0.46 588.55-1.48 587.43-2.49 586.81-3.83 586.19-5.18 586.19-6.69L586.19-6.69Q586.19-8.3 586.66-9.55 587.14-10.79 587.93-11.71 588.73-12.62 589.79-13.24 590.85-13.87 592.01-14.25 593.17-14.62 594.38-14.78 595.59-14.94 596.68-14.94L596.68-14.94Q598.44-14.94 599.64-14.83 600.84-14.72 601.81-14.53L601.81-14.53 601.84-16.6Q601.84-17.94 601.45-18.93 601.05-19.92 600.35-20.57 599.64-21.22 598.65-21.53 597.66-21.85 596.44-21.85L596.44-21.85Q595.29-21.85 594.24-21.69 593.19-21.53 592.28-21.28 591.36-21.02 590.59-20.69 589.82-20.36 589.29-20L589.29-20 587.8-23.14Q588.7-23.73 589.78-24.23 590.85-24.73 592.03-25.09 593.22-25.44 594.45-25.65 595.68-25.85 596.88-25.85L596.88-25.85Q599.08-25.85 600.84-25.33 602.59-24.8 603.81-23.71 605.03-22.61 605.69-20.91 606.35-19.21 606.35-16.85L606.35-16.85 606.33-4.2 609.14-4.2 609.14 0 601.79 0ZM595.63-3.1L595.63-3.1Q596.54-3.1 597.44-3.32 598.34-3.54 599.15-3.92 599.96-4.3 600.64-4.8 601.32-5.3 601.79-5.83L601.79-5.83 601.81-11.55 596.54-11.55Q595.22-11.55 594.13-11.25 593.05-10.96 592.25-10.4 591.46-9.84 591.02-9.01 590.58-8.18 590.58-7.1L590.58-7.1Q590.58-6.1 590.95-5.36 591.31-4.61 591.99-4.11 592.66-3.61 593.58-3.36 594.51-3.1 595.63-3.1ZM646.05-33.45L646.05-25.29 651.99-25.29 651.99-21.61 646-21.61 645.93-7.01Q645.93-5.52 646.27-4.59 646.61-3.66 647.37-3.31 648.13-2.95 649.08-2.95L649.08-2.95Q650.11-2.95 650.89-3.14 651.67-3.32 652.6-3.76L652.6-3.76 653.65-0.71Q652.47-0.1 651.18 0.26 649.89 0.61 648.13 0.61L648.13 0.61Q646.47 0.61 645.23 0.21 644-0.2 643.16-1.15 642.32-2.1 641.9-3.7 641.49-5.3 641.49-7.69L641.49-7.69 641.56-21.61 637.53-21.61 637.53-25.29 641.61-25.29 641.61-31.35 646.05-33.45Z" opacity="1" transform="matrix(1,0,0,1,0,0)" fill="#ff6699" class="undefined-text-1" data-fill-palette-color="secondary" id="text-1"></path></svg></g></svg></g></svg></g></svg></g></svg></g></svg></g></svg></g><g><path d="M0 123.6c0-68.262 55.338-123.6 123.6-123.6 57.416 0 105.688 39.149 119.579 92.209h-1.401c-13.857-52.304-61.515-90.855-118.178-90.855-67.514 0-122.246 54.731-122.246 122.246 0 67.514 54.731 122.246 122.246 122.246 56.663 0 104.321-38.551 118.178-90.855h1.401c-13.891 53.06-62.163 92.209-119.579 92.209-68.262 0-123.6-55.338-123.6-123.6z" fill="#ffffff" stroke="transparent" data-fill-palette-color="tertiary"></path></g></svg></g><defs></defs></svg><rect width="395.52" height="247.2" fill="none" stroke="none" visibility="hidden"></rect></g></svg></g></svg>